<?xml version="1.0" encoding="utf-8"?>
<!-- Generator: Adobe Illustrator 26.4.1, SVG Export Plug-In . SVG Version: 6.00 Build 0)  -->
<svg version="1.1" id="Layer_1" xmlns="http://www.w3.org/2000/svg" xmlns:xlink="http://www.w3.org/1999/xlink" x="0px" y="0px"
	 viewBox="0 0 960 600" style="enable-background:new 0 0 960 600;" xml:space="preserve">
<style type="text/css">
	.st0{fill:url(#SVGID_1_);}
	.st1{fill:url(#SVGID_00000116231514724428083220000017523403700401155741_);}
	.st2{fill:url(#SVGID_00000016795832070010071400000016953479804623469455_);}
	.st3{fill:url(#SVGID_00000015319329497090767650000012526013871020176803_);}
</style>
<g>
	<path d="M208.4,448.9h0.2l5.6-37.6h11.6v53h-7.9v-38h-0.2l-5.6,38h-7.9l-6.1-37.5H198v37.5h-7.3v-53h11.6L208.4,448.9z"/>
	<path d="M308.6,464.2h-8.4l-1.4-9.6h-10.2l-1.4,9.6h-7.7l8.5-53h12.2L308.6,464.2z M289.6,447.4h8l-3.9-26.8h-0.2L289.6,447.4z"/>
	<path d="M374.7,434.7h11.7v16.8c0,8.5-4.2,13.3-12.4,13.3c-8.2,0-12.4-4.8-12.4-13.3v-27.6c0-8.5,4.2-13.3,12.4-13.3
		c8.2,0,12.4,4.8,12.4,13.3v5.2h-7.9v-5.7c0-3.8-1.7-5.2-4.3-5.2c-2.7,0-4.3,1.4-4.3,5.2V452c0,3.8,1.7,5.2,4.3,5.2
		c2.7,0,4.3-1.4,4.3-5.2v-9.8h-3.8V434.7z"/>
	<path d="M468.5,464.2h-8.4l-1.4-9.6h-10.2l-1.4,9.6h-7.6l8.5-53H460L468.5,464.2z M449.5,447.4h8l-3.9-26.8h-0.2L449.5,447.4z"/>
	<path d="M545.3,411.2v7.4l-15.8,38h15.8v7.6h-24.4v-7.4l15.8-38h-15.1v-7.6H545.3z"/>
	<path d="M600.1,411.2h8.3v53h-8.3V411.2z"/>
	<path d="M671.9,425.8h-0.2v38.4h-7.5v-53h10.5l8.4,31.7h0.2v-31.7h7.4v53h-8.6L671.9,425.8z"/>
	<path d="M754.9,433.6h11.4v7.6h-11.4v15.5h14.4v7.6h-22.7v-53h22.7v7.6h-14.4V433.6z"/>
</g>
<g>
	<linearGradient id="SVGID_1_" gradientUnits="userSpaceOnUse" x1="168.5051" y1="369.7259" x2="168.5051" y2="192.2782">
		<stop  offset="0" style="stop-color:#FFF23A"/>
		<stop  offset="4.010540e-02" style="stop-color:#FEE62D"/>
		<stop  offset="0.1171" style="stop-color:#FED41A"/>
		<stop  offset="0.1964" style="stop-color:#FDC90F"/>
		<stop  offset="0.2809" style="stop-color:#FDC60B"/>
		<stop  offset="0.6685" style="stop-color:#F28F3F"/>
		<stop  offset="0.8876" style="stop-color:#ED693C"/>
		<stop  offset="1" style="stop-color:#E83E39"/>
	</linearGradient>
	<path class="st0" d="M262.7,159.3c-0.5,4.3-2.1,11.9-4.6,22.7c-10.5,8.7-19.7,13-27.6,13c-2.2,0-4.3-0.3-6.5-0.8
		c-7.9,1.1-20.2,1.8-36.7,2.2c-16.5,0.4-29,1.2-37.5,2.4c-0.9,7.8-1.4,15.3-1.4,22.7c0,7.2,0.4,14.3,1.1,21.1c7,0,17.5-1.2,31.3-3.5
		c13.8-2.3,24.2-3.5,31.3-3.5c5.1,0,9.8,0.5,14.3,1.4c4.5,2.9,7.6,7,9.2,12.5c0.5,1.6,1.4,6.9,2.7,15.7
		c-5.4,9.7-13.3,14.6-23.6,14.6c-2.2,0-5.5-0.2-9.9-0.5c-4.4-0.4-7.7-0.5-9.9-0.5c-9.7,0-24.1,2.2-43,6.5c-0.2,2-0.3,4-0.3,6
		c0,5.8,1.2,11.6,3.5,17.3c-1.3,2.7-1.9,5.1-1.9,7c0,1.4,0.4,3.5,1.2,6.2c0.8,2.7,1.2,4.8,1.2,6.2c0,0.9-0.1,2.1-0.3,3.5
		c-0.2,1.4-0.3,2.6-0.3,3.5c0,2.9,1.3,6.9,3.9,12c2.6,5.1,3.9,9.2,3.9,12.3c0,8.1-4.9,14.2-14.6,18.1c-0.9,0.5-9.1,2.8-24.5,6.8
		c-5.6-3.6-11.1-7.2-16.7-10.8c-6.5-4.2-11.1-8.8-14-14.1c0-1.6,0-3.3,0-5.1c0-7.4,1.8-17.1,5.4-29.2c3.6-11.4,5.1-21.2,4.6-29.5
		l1.1-11.9c-4-2.9-8-5.8-12.1-8.7c-4.1-3.6-6.2-7.9-6.2-12.7c0-6,1.6-11.3,4.7-16.1c3.2-4.8,7.4-7.2,12.9-7.2c1.3,0,2.5,0.1,3.8,0.3
		c0-1.4,0.2-5.1,0.5-11.1c0.2-4.5,0.3-8.1,0.3-10.8l-0.3-5.1l-13.5,2.2c-13.4-6-20-17.1-20-33.6c0-2,0.2-4,0.5-6
		c3.4-6.3,7.6-10.3,12.5-11.9c2.5-0.9,8-1.4,16.5-1.6c6.3-0.2,11.3-1.5,15.1-4.1c44.8-4.2,83.4-11.5,115.7-21.9
		C246.5,136.1,255.9,144.1,262.7,159.3z"/>
	
		<linearGradient id="SVGID_00000132801991541277333980000014538030168318773934_" gradientUnits="userSpaceOnUse" x1="372.2421" y1="369.7259" x2="372.2421" y2="192.2782">
		<stop  offset="0" style="stop-color:#FFF23A"/>
		<stop  offset="4.010540e-02" style="stop-color:#FEE62D"/>
		<stop  offset="0.1171" style="stop-color:#FED41A"/>
		<stop  offset="0.1964" style="stop-color:#FDC90F"/>
		<stop  offset="0.2809" style="stop-color:#FDC60B"/>
		<stop  offset="0.6685" style="stop-color:#F28F3F"/>
		<stop  offset="0.8876" style="stop-color:#ED693C"/>
		<stop  offset="1" style="stop-color:#E83E39"/>
	</linearGradient>
	<path style="fill:url(#SVGID_00000132801991541277333980000014538030168318773934_);" d="M466.9,330.6c0,4.7-1.2,9.5-3.5,14.3
		c-7,4.5-13,6.8-17.9,6.8c-5.4,0-12.4-3.4-20.8-10.3c-16.2,6.7-27.8,11.2-34.7,13.5c-13,4.9-24.8,8.5-35.5,10.8
		c-4,3.2-9.7,4.9-17.3,4.9c-10.7,0-16.8,0.1-18.4,0.3c-2.7-6-5.4-10.3-8.1-13c-2-1.8-6.2-4.7-12.7-8.7
		c-13.5-8.5-20.3-17.9-20.3-28.2c0-6.3,2.4-14.8,7.3-25.5c-0.2-3.8,0-9.4,0.7-16.8c0.6-7.4,0.9-12.9,0.9-16.5
		c0-4.5-0.3-8.7-0.8-12.5l2.4-4.1c-2.2-5.6-3.2-9.3-3.2-11.1c0-1.6,0.4-3.2,1.1-4.9c-0.4-2.5-0.5-5.1-0.5-7.6
		c0-3.8,0.4-9.4,1.2-16.9c0.8-7.5,1.2-13.1,1.2-16.9c0-1.4-0.1-3.6-0.4-6.4c-0.3-2.8-0.4-4.8-0.4-6.1c0-3.8,2.6-8.7,7.9-14.6
		c4-4.1,7.9-8.4,11.9-12.7c16.2,6.5,24.4,15.2,24.4,26c0,2.2-0.4,6.3-1.1,12.5c-0.7,5.1-0.9,9.1-0.5,12.2c-5.4,20.6-8.1,39-8.1,55.2
		c0,15.5,2.6,28.4,7.9,38.7c1.3,2.7,2.9,7,4.9,12.7c3.6,0.7,8.9,2.2,16,4.3c9.2-2,23-5.3,41.4-10c2.3-4.2,4.7-8.3,7-12.5
		c3.1-4.7,6.3-8.2,9.7-10.6c1.4-5.4,2.2-11.3,2.2-17.6c0-3.2-1.2-14.9-3.5-34.9c-0.4-6.7-1.2-16.6-2.4-29.8
		c-0.4-2.9-1.6-8.1-3.8-15.7c-1.6-6.7-2.4-12-2.4-16c0-4.9,4.1-9.8,12.5-14.9c14.1,0,26.8,4.4,38.2,13.3c2.3,5.4,3.5,10.7,3.5,15.7
		c0,2.3-0.3,5.3-0.8,8.9c-3.4,21.5-5.1,36-5.1,43.6c0,3.8,0.3,9.5,0.9,17.2c0.6,7.7,0.9,13.4,0.9,17.2c0,1.6,0,4.1,0,7.3
		c-0.2,3.1-0.3,5.4-0.3,7c0,7.2,0.7,13.6,2.2,19.2C461.4,310.3,466.9,321.3,466.9,330.6z"/>
	
		<linearGradient id="SVGID_00000111896505335608064160000017481658798562227339_" gradientUnits="userSpaceOnUse" x1="573.2714" y1="369.7259" x2="573.2714" y2="192.2782">
		<stop  offset="0" style="stop-color:#FFF23A"/>
		<stop  offset="4.010540e-02" style="stop-color:#FEE62D"/>
		<stop  offset="0.1171" style="stop-color:#FED41A"/>
		<stop  offset="0.1964" style="stop-color:#FDC90F"/>
		<stop  offset="0.2809" style="stop-color:#FDC60B"/>
		<stop  offset="0.6685" style="stop-color:#F28F3F"/>
		<stop  offset="0.8876" style="stop-color:#ED693C"/>
		<stop  offset="1" style="stop-color:#E83E39"/>
	</linearGradient>
	<path style="fill:url(#SVGID_00000111896505335608064160000017481658798562227339_);" d="M672.4,343.1c0,4.7-0.9,11.3-2.7,19.8
		c-10.7,5.1-17.6,7.6-20.8,7.6c-3.4,0-6.6-1-9.5-3c-5.2,0.2-10.6-1.7-16-5.7c-4.5-4-8.9-7.9-13.3-11.6c-5.6-5.1-9.3-9.9-11.1-14.6
		c-2.5-7-4.8-12-6.8-14.9c-4.9-6.5-11.8-16.7-20.8-30.6c-3.8-6.7-6.8-11.5-8.9-14.3c-4.7-6.3-8.9-9.7-12.7-10c-4,3.4-6.6,8-7.9,13.8
		c-0.7,3.2-1.2,8.7-1.4,16.2c-0.7,23.5-4.3,42.6-10.8,57.4c-16.1,6-26.6,8.9-31.7,8.9c-5.2,0-10.4-1.2-15.4-3.5
		c-5.6-7.4-8.4-12.5-8.4-15.4c0-2.3,0.8-4.5,2.4-6.5c3.2-16.1,9.4-42.8,18.4-80.1c1.8-6.9,3.6-13.6,5.4-20.3
		c2.2-8.1,3.2-15.1,3.2-20.8c0-5.2,2.2-12.7,6.5-22.5c10.5-7.8,18.1-11.6,23-11.6c9,0,20.1,13.1,33.3,39.3
		c6.1,12.1,13.9,22.2,23.3,30.3c4.7,9.4,14.6,21.6,29.8,36.6l2.4-2.2c-3.2-22.7-7.9-56.7-13.8-101.8c-3.4-2-5.1-5.5-5.1-10.6
		c0-5.1,1.6-10.2,4.9-15.4c3.8-6,8.1-8.9,13-8.9c6,0,12.8,2.1,20.6,6.4c7.8,4.2,13.1,8.9,16,13.9c2.5,4.3,3.7,10.6,3.5,18.7
		c-0.4,9.6,0,16,1.1,19.2c-1.3,2.7-1.9,5.3-1.9,7.9c0,1.3,0.2,3.1,0.7,5.6c0.4,2.4,0.7,4.3,0.7,5.6c0,2.2-0.5,4.3-1.4,6.5
		c0.2,1.6,0.5,16.2,1.1,43.6c0.4,17.7,2.3,31.9,5.8,42.8C670.6,329.3,672.4,337.5,672.4,343.1z"/>
	
		<linearGradient id="SVGID_00000106843887342069335100000017009087815455631754_" gradientUnits="userSpaceOnUse" x1="788.3817" y1="369.7259" x2="788.3817" y2="192.2782">
		<stop  offset="0" style="stop-color:#FFF23A"/>
		<stop  offset="4.010540e-02" style="stop-color:#FEE62D"/>
		<stop  offset="0.1171" style="stop-color:#FED41A"/>
		<stop  offset="0.1964" style="stop-color:#FDC90F"/>
		<stop  offset="0.2809" style="stop-color:#FDC60B"/>
		<stop  offset="0.6685" style="stop-color:#F28F3F"/>
		<stop  offset="0.8876" style="stop-color:#ED693C"/>
		<stop  offset="1" style="stop-color:#E83E39"/>
	</linearGradient>
	<path style="fill:url(#SVGID_00000106843887342069335100000017009087815455631754_);" d="M885.7,321.7c-8.3,9.4-13.5,15-15.7,16.8
		c-6.3,5.1-13.5,7.6-21.7,7.6c-8.3,0-15-1.7-20-5.1c-6.7-4.5-11.8-7.2-15.4-8.1c-1.4-0.5-5.4-1.2-11.9-1.9
		c-16.2-2-33.8-8.1-52.5-18.4c-1.4,5.6-2.2,9.9-2.2,13c0,4.2,1.1,8.6,3.2,13.3c-2.2,3.2-3.2,6.1-3.2,8.7c0,1.6,0.9,4.1,2.6,7.6
		c1.7,3.4,2.6,6.5,2.6,9.2c0,4.7-2,8.4-6.1,11.2c-4.1,2.8-8.5,4.2-13.4,4.2c-9.2,0-15.5-2.9-19-8.7c-2.3-4.2-3.5-11.1-3.5-20.8
		c0-6.5,0.1-15.3,0.3-26.3c0.4-12.6,0.5-21.3,0.5-26c-12.8-4.9-19.2-12.7-19.2-23.6c0-9.9,5.8-16.9,17.3-20.8v-25.7
		c0-1.4,0.1-3.5,0.4-6.1c0.3-2.6,0.4-4.6,0.4-5.8c0-12.6-2.2-21.7-6.5-27.1c-1.4-4-2.2-7.6-2.2-10.8c0-6.5,2.6-11.6,7.9-15.4
		c9.7-1.8,16.8-2.7,21.1-2.7c11.9,0,21.1,4.9,27.6,14.6c0.4,13,0,32.5-1.1,58.5c8.5-8.3,16.9-19,25.2-31.9
		c2.9-4.5,9.8-16.2,20.8-35.2c-0.2-0.9-0.3-1.9-0.3-3c0-2.7,0.8-6,2.4-9.7c2.3-5.6,3.6-8.8,3.8-9.5c8.8-2.9,13.7-4.3,14.6-4.3
		c3.8,0,10.6,2.2,20.3,6.5c5.6,2.7,9.7,6,12.2,10c1.1,1.8,3,6.8,5.7,14.9c-7.4,11.7-16,21.7-25.7,29.8
		c-14.1,11.7-31.9,33.8-53.6,66.3c10.1,3.1,18.6,6,25.5,8.9c2.9,1.6,7.4,3.7,13.5,6.2c12.6,3.2,25.2,6.5,37.6,9.7
		c18,5.4,27.1,12,27.1,19.8c0,0.7-0.1,1.7-0.3,3c-0.2,1.3-0.3,2.2-0.3,2.7C884.6,318.4,885,319.9,885.7,321.7z"/>
</g>
</svg>
