<?xml version="1.0" encoding="utf-8"?>
<!-- Generator: Adobe Illustrator 26.4.1, SVG Export Plug-In . SVG Version: 6.00 Build 0)  -->
<svg version="1.1" id="Layer_1" xmlns="http://www.w3.org/2000/svg" xmlns:xlink="http://www.w3.org/1999/xlink" x="0px" y="0px"
	 viewBox="0 0 960 600" style="enable-background:new 0 0 960 600;" xml:space="preserve">
<style type="text/css">
	.st0{fill:url(#SVGID_1_);}
	.st1{fill:url(#SVGID_00000097463078608759850750000000446808710217458060_);}
</style>
<g>
	<g>
		<path d="M178.8,315.8c0,5.9-3.9,8.9-11.6,8.9c-9.7,0-17.5-3.1-23.3-9.2c-4.5-4.8-7.1-9.8-7.8-15.3l-1.6-13c-1.1-8.3-3-14-5.8-17.3
			c-2.8-3.3-7.3-4.9-13.5-4.8v36.1c0,8.4,0.1,12.9,0.2,13.5c0,1.8,0.7,3,2.2,3.7c1.5,0.7,4.3,1,8.4,1c2.5,0,3.8,0.5,3.8,1.4
			c0,0.8-0.6,1.3-1.9,1.3h-15.4H110c-1.9,0-3.7,0-5.4,0H93.2c-1.1,0-2.3,0-3.6,0c-1.2,0-1.9,0-2.2,0h-7.3c-1.5,0-2.2-0.4-2.2-1.1
			c0-0.8,2.2-1.4,6.5-1.6c3.6-0.2,5.7-1.1,6.3-2.5c0.3-0.7,0.5-3,0.5-6.7v-81.9c0-5.5-0.1-8.8-0.3-9.8c-0.2-1-0.9-1.8-2.1-2.3
			c-1.5-0.6-3.9-1-7.1-1c-2.3,0-3.5-0.5-3.5-1.4c0-0.7,0.5-1.2,1.4-1.3c1-0.2,3.5-0.2,7.6-0.2h2.9c1.9,0,3.7,0,5.5,0h5.2
			c0.1,0,1.2,0,3.3,0c2,0,3.9,0,5.7,0h9.2c14.8,0,24.9,1.2,30.3,3.5c4.2,1.8,7.6,4.5,10.1,8.2c2.5,3.7,3.8,7.8,3.8,12.2
			c0,10.1-5.3,17.6-15.8,22.5c-4.6,2.1-11.5,3.7-20.6,4.8l-0.2,1c11.5,0.7,19.9,3.8,25,9.1c5.2,5.3,8.3,14,9.3,25.9
			c0.8,9.5,2.2,15.5,4,17.8c1.8,2.4,3.6,3.6,5.5,3.6c1.6,0,2.4-0.4,2.4-1.3c0-0.4-0.6-1-1.8-1.7c-1.2-0.7-1.8-1.8-1.8-3.2
			c0-2.9,1.6-4.3,4.8-4.3C177.2,310.4,178.8,312.2,178.8,315.8z M138.7,235.7c0-13.6-5.4-20.4-16.2-20.4c-3.5,0-5.7,1.2-6.5,3.5
			c-0.5,1.5-0.8,7.2-0.8,17.3v26.3c8.2,0.1,14.2-2,17.9-6.2C136.9,252,138.7,245.1,138.7,235.7z"/>
		<path d="M254.1,288.3c0,11.3-4.4,20.4-13.3,27.4c-7,5.5-14.6,8.2-23,8.2c-9.9,0-18.5-3.6-25.8-10.7c-7.2-7.1-10.9-15.6-10.9-25.3
			c0-10.1,3.6-18.8,10.9-25.9c7.2-7.1,16-10.7,26.2-10.7c9.8,0,18.2,3.6,25.3,10.9C250.6,269.5,254.1,278.2,254.1,288.3z
			 M230.2,288.5c0-13.1-0.9-22.1-2.7-26.9c-2-5.4-5.2-8.1-9.6-8.1c-4.1,0-7.3,2.8-9.6,8.5c-2.3,5.7-3.5,13.4-3.5,23.4
			c0,13.8,1.4,23.7,4.1,29.5c2.2,4.6,5.3,7,9.3,7c4.9,0,8.2-3,9.8-8.9C229.4,307.3,230.2,299.2,230.2,288.5z"/>
		<path d="M311.9,300.1c0,7.1-2.2,12.8-6.5,17.2c-4.3,4.4-9.9,6.6-16.7,6.6c-3.4,0-7.4-0.8-12-2.5c-3.8-1.4-6.3-2.1-7.4-2.1
			c-2,0-3.3,0.8-3.9,2.3c-0.6,1.5-1.1,2.3-1.4,2.3c-0.6,0-0.9-0.4-0.9-1.1c0-0.6,0.1-1.6,0.3-3c0.3-2,0.4-5.5,0.4-10.5
			c0-0.2,0-0.7,0-1.6c0-0.8,0-2,0-3.5v-2.7c0-1.2,0.3-1.8,0.8-1.8c0.6,0,1.1,0.8,1.4,2.4c0.9,5.6,3.6,10.3,8,14
			c4.4,3.8,9.4,5.6,14.8,5.6c3.5,0,6.3-1.1,8.4-3.2c2.2-2.2,3.2-5,3.2-8.5c0-2.7-1-5.1-3-7c-1.5-1.4-5.4-3.1-11.9-5.2
			c-7.9-2.6-13.7-5.8-17.2-9.6c-3.5-3.7-5.3-8.5-5.3-14.3c0-6.2,2.1-11.5,6.3-15.8c4.2-4.3,9.4-6.5,15.5-6.5c2.3,0,6.3,0.7,12,2.2
			c0.8,0.2,1.5,0.3,1.9,0.3c2.3,0,4.1-1.4,5.2-4.3c0.2-0.5,0.5-0.8,0.8-0.8c0.7,0,1.1,0.6,1.1,1.9l-0.2,3c-0.1,0.4-0.2,1.2-0.2,2.2
			c0,4.3,0.3,8.8,0.8,13.3v0.8c0,0.8-0.3,1.3-1,1.3c-0.5,0-1-0.5-1.3-1.4c-3.1-10.8-9.3-16.2-18.7-16.2c-3.5,0-6.4,1-8.6,2.9
			c-2.3,1.9-3.4,4.3-3.4,7.3c0,2.7,1,4.9,2.9,6.5c1.9,1.6,5.6,3.4,11.1,5.4c9.6,3.4,16.1,6.8,19.5,10.1
			C310.2,289.4,311.9,294.1,311.9,300.1z"/>
		<path d="M381.6,302.6c0,2.3-1.4,5.4-4.1,9.2c-5.9,8.1-13.6,12.2-23.1,12.2c-10.7,0-19.4-3.4-26.3-10.1c-6.9-6.8-10.3-15.4-10.3-26
			c0-10.4,3.3-19,10-25.9c6.7-6.9,14.9-10.4,24.9-10.4c6.8,0,12.5,1.5,17.3,4.4c5.3,3.3,8.7,8,10.3,14.1c0.4,1.9,0.7,4.2,1,6.8
			c-2.4,0.3-12.2,0.5-29.3,0.6c-2.6,0-6,0.1-10,0.3c-0.3,3.8-0.5,7-0.5,9.6c0,12.3,2.6,21,7.8,26.2c3.1,3.1,6.8,4.6,11.3,4.6
			c3.7,0,7.3-1.3,10.7-3.8c3.4-2.5,6-5.8,7.8-9.8c0.8-2,1.5-3,2.1-3C381.4,301.7,381.6,302,381.6,302.6z M361.7,274.9
			c0.1-8.1-0.5-13.7-1.7-16.8c-1.3-3.1-3.5-4.7-6.7-4.7c-6.4,0-10.1,7.2-11.1,21.6c2.2,0,6.9,0,13.9,0
			C358.2,274.9,360.1,274.9,361.7,274.9z"/>
		<path d="M474.8,293.3c0,6.6-2,12.2-6,16.9c-4,4.7-9.6,7.9-16.6,9.5c-5.6,1.3-10.9,2-15.8,2.2c-5,0.2-19.5,0.3-43.7,0.3
			c-3.4,0-5.4-0.1-6-0.2c-0.6-0.1-1-0.5-1-1.1c0-1,1.7-1.4,5.1-1.4c3.4,0,5.6-0.5,6.4-1.5c0.8-1,1.3-3.5,1.3-7.4v-90.8
			c0-3.1-2.5-4.7-7.4-4.8c-3.7-0.1-5.6-0.5-5.6-1.3c0-0.9,1.2-1.3,3.5-1.3c2.2,0,4.4,0,6.5,0h38c24.4,0,36.6,8.4,36.6,25.1
			c0,13.9-9.1,22.5-27.3,25.7l-0.3,0.6c10.7,2.2,18.1,5,22.2,8.4C471.4,278,474.8,285,474.8,293.3z M449.5,292.6
			c0-14.9-4.2-23.6-12.7-26c-3.3-1-8.1-1.4-14.4-1.4v9.2c0,2.6-0.1,6.4-0.3,11.3c-0.1,2.4-0.2,7-0.2,13.6c0,11.4,0.3,17.5,1,18.2
			c0.8,1.2,3.2,1.7,7.1,1.7C443,319.3,449.5,310.4,449.5,292.6z M446.5,238.4c0-15.3-4.7-23-14-23c-3.3,0-5.5,0.2-6.7,0.5
			c-2.3,0.7-3.4,2.4-3.4,4.9v41.8c9.2,0,15.5-1.6,19-4.9C444.7,254.5,446.5,248,446.5,238.4z"/>
		<path d="M558,288.3c0,11.3-4.4,20.4-13.3,27.4c-7,5.5-14.6,8.2-23,8.2c-9.9,0-18.5-3.6-25.8-10.7c-7.2-7.1-10.9-15.6-10.9-25.3
			c0-10.1,3.6-18.8,10.9-25.9c7.2-7.1,16-10.7,26.2-10.7c9.8,0,18.2,3.6,25.3,10.9C554.5,269.5,558,278.2,558,288.3z M534.1,288.5
			c0-13.1-0.9-22.1-2.7-26.9c-2-5.4-5.2-8.1-9.6-8.1c-4.1,0-7.3,2.8-9.6,8.5c-2.3,5.7-3.5,13.4-3.5,23.4c0,13.8,1.4,23.7,4.1,29.5
			c2.2,4.6,5.3,7,9.3,7c4.9,0,8.2-3,9.8-8.9C533.4,307.3,534.1,299.2,534.1,288.5z"/>
		<path d="M638.2,320.8c0,0.7-0.6,1.1-1.9,1.1h-3.6h-5.7h-11.4h-20c-1.6,0-2.4-0.4-2.4-1.2c0-0.7,0.8-1,2.5-1h2.5
			c3.4,0,5.1-0.5,5.1-1.6c0-2.1-4.2-10.3-12.6-24.5c-2.2,3-6.2,8.5-11.9,16.6c-1.1,1.9-2.3,3.7-3.8,5.4c-0.9,1.2-1.3,2.1-1.3,2.7
			c0,0.9,1.7,1.4,5.1,1.4c1,0,1.8,0,2.5,0h1.4c1.6,0,2.4,0.4,2.4,1.1c0,0.7-0.6,1.1-1.9,1.1l-18.5-0.2c-3.1,0-4.8-0.1-5.3-0.2
			c-0.5-0.1-0.7-0.4-0.7-0.9c0-0.8,0.8-1.2,2.4-1.1c3.4,0.1,5.9-0.5,7.5-1.7c1.6-1.3,4.5-4.8,8.6-10.5c2.2-3,3.9-5.3,5.1-6.9
			c3.1-4,5.4-7.3,7-9.8c-0.6-0.8-2.3-3.7-5-8.5c-2.7-4.8-4.9-8.7-6.6-11.6l-4.1-7.1c-1.9-3.3-3.4-5.3-4.4-6.2
			c-1.1-0.8-2.9-1.3-5.4-1.3c-2.5-0.1-3.8-0.4-3.8-1.2c0-0.8,0.7-1.3,2.2-1.3c1.2,0,2.3,0,3.3,0H581h19c1.4,0,2.1,0.4,2.1,1.1
			c0,0.7-1.3,1.2-4,1.3c-3.1,0.1-4.6,0.7-4.6,1.9c0,2.2,3.6,9,10.8,20.3c9-12,13.5-18.9,13.5-20.7c0-1.1-1.6-1.6-4.8-1.6h-0.8
			c-0.7,0-1.5,0-2.4,0c-1,0-1.4-0.4-1.4-1.2c0-0.7,0.8-1,2.4-1s3.5,0,5.6,0c2.2,0,3.6,0,4.2,0c4.9,0,7.9,0,9.2,0h1.6
			c1.2,0,1.7,0.3,1.7,1c0,0.8-0.8,1.2-2.4,1.2c-0.2,0-0.7,0-1.6,0h-1.4c-2.3,0-4.1,0.6-5.4,1.9c-1.3,1.3-4.5,5.8-9.7,13.5
			c-0.2,0.3-2.5,3.6-6.8,9.8l4.9,8.6c2.1,3.7,4.8,8.4,7.9,14.1c3.8,7.3,6.7,11.9,8.6,13.7c2,1.8,4.8,2.7,8.6,2.6
			C637.5,319.7,638.2,320.1,638.2,320.8z"/>
	</g>
	<g>
		<path d="M113.6,351.7c-2.8-3.1-6.7-4.6-11.8-4.6c-4.2,0-7.2,0.8-9.1,2.4c-1.9,1.6-2.9,3.7-2.9,6.4c0,1.4,0.2,2.5,0.7,3.4
			c0.5,0.9,1.2,1.7,2.3,2.3c1,0.6,2.3,1.2,3.9,1.6c1.6,0.4,3.5,0.9,5.7,1.4c2.3,0.5,4.4,1,6.2,1.6c1.9,0.6,3.5,1.3,4.8,2.2
			c1.3,0.9,2.3,2,3,3.3c0.7,1.3,1.1,2.9,1.1,4.8c0,1.9-0.4,3.5-1.1,4.9c-0.7,1.4-1.8,2.6-3.1,3.5c-1.3,0.9-3,1.7-4.8,2.1
			c-1.9,0.5-3.9,0.7-6.2,0.7c-6.7,0-12.3-2.1-16.9-6.4l1.6-2.5c1.8,1.9,4,3.4,6.6,4.5c2.6,1.1,5.5,1.7,8.8,1.7c3.7,0,6.7-0.7,8.8-2
			c2.1-1.4,3.2-3.4,3.2-6.2c0-1.4-0.3-2.6-0.8-3.6c-0.6-1-1.4-1.8-2.5-2.6c-1.1-0.7-2.5-1.3-4.2-1.9c-1.7-0.5-3.7-1-5.9-1.5
			c-2.3-0.5-4.3-1-6.1-1.5c-1.7-0.5-3.2-1.2-4.4-2c-1.2-0.8-2.1-1.8-2.7-3c-0.6-1.2-0.9-2.6-0.9-4.4c0-1.9,0.4-3.6,1.1-5.1
			c0.7-1.5,1.8-2.7,3.1-3.8c1.3-1,2.9-1.8,4.8-2.3c1.8-0.5,3.9-0.8,6.1-0.8c2.8,0,5.2,0.4,7.4,1.2c2.2,0.8,4.1,2.1,5.9,3.8
			L113.6,351.7z"/>
		<path d="M175.9,347.3h-15.7v40h-3.1v-40h-15.7v-2.8h34.4V347.3z"/>
		<path d="M212.8,344.6h2.7l18.1,42.8h-3.3l-6-14.1h-20.4l-6,14.1h-3.3L212.8,344.6z M223.5,370.7l-9.3-22.4l-9.5,22.4H223.5z"/>
		<path d="M286.8,347.3h-15.7v40h-3.1v-40h-15.7v-2.8h34.4V347.3z"/>
		<path d="M314.5,387.4v-42.8h3.1v42.8H314.5z"/>
		<path d="M367,387.7c-3,0-5.7-0.6-8.1-1.9c-2.5-1.2-4.6-2.9-6.3-4.9c-1.8-2-3.1-4.3-4.1-6.9c-1-2.6-1.4-5.3-1.4-8
			c0-2.9,0.5-5.6,1.5-8.2c1-2.6,2.4-4.9,4.2-6.9c1.8-2,3.9-3.6,6.4-4.8c2.5-1.2,5.1-1.8,8-1.8c3,0,5.7,0.6,8.2,1.9
			c2.5,1.3,4.6,2.9,6.3,5c1.7,2,3.1,4.4,4.1,7c1,2.6,1.4,5.2,1.4,7.9c0,2.9-0.5,5.6-1.5,8.3c-1,2.6-2.4,4.9-4.2,6.9
			c-1.8,2-3.9,3.6-6.4,4.8C372.5,387.1,369.8,387.7,367,387.7z M350,366c0,2.5,0.4,4.8,1.2,7.1c0.8,2.3,2,4.3,3.5,6
			c1.5,1.7,3.3,3.1,5.4,4.2c2.1,1,4.4,1.6,6.9,1.6c2.6,0,4.9-0.5,7-1.6c2.1-1.1,3.8-2.5,5.3-4.3c1.5-1.8,2.6-3.8,3.4-6.1
			c0.8-2.2,1.2-4.5,1.2-6.9c0-2.4-0.4-4.8-1.3-7.1c-0.8-2.3-2-4.3-3.5-6c-1.5-1.7-3.3-3.1-5.3-4.2c-2-1-4.3-1.6-6.7-1.6
			c-2.6,0-4.9,0.5-7,1.6c-2.1,1.1-3.9,2.5-5.4,4.3c-1.5,1.8-2.6,3.8-3.4,6.1C350.4,361.3,350,363.6,350,366z"/>
		<path d="M419.4,350.4v37h-3.1v-42.8h2.3l30,37.7v-37.7h3.1v42.8H449L419.4,350.4z"/>
		<path d="M512.5,384.6v2.8H484v-42.8h28v2.8h-24.9v16.8h21.8v2.7h-21.8v17.8H512.5z"/>
		<path d="M542,387.4v-42.8h17.8c1.8,0,3.5,0.4,5,1.1c1.5,0.8,2.8,1.8,3.9,3c1.1,1.3,2,2.7,2.6,4.3c0.6,1.6,0.9,3.2,0.9,4.8
			c0,1.6-0.2,3.1-0.7,4.5c-0.5,1.5-1.2,2.8-2,3.9c-0.9,1.2-1.9,2.1-3.2,2.9c-1.2,0.8-2.6,1.3-4.1,1.5l10.7,16.6h-3.6l-10.4-16.2
			h-13.9v16.2H542z M545.1,368.4h15c1.4,0,2.6-0.3,3.7-0.9c1.1-0.6,2.1-1.4,2.9-2.4c0.8-1,1.4-2.1,1.8-3.4c0.4-1.3,0.6-2.6,0.6-3.9
			c0-1.4-0.3-2.7-0.8-3.9c-0.5-1.3-1.2-2.4-2-3.3c-0.9-1-1.9-1.7-3-2.3c-1.1-0.6-2.4-0.9-3.7-0.9h-14.6V368.4z"/>
		<path d="M599.7,344.6l14.9,23.7l15-23.7h3.4l-16.9,26.6v16.2h-3.1v-16.3l-16.8-26.5H599.7z"/>
	</g>
	<g>
		<linearGradient id="SVGID_1_" gradientUnits="userSpaceOnUse" x1="664.4796" y1="254.448" x2="851.8709" y2="384.8871">
			<stop  offset="0" style="stop-color:#37B34A"/>
			<stop  offset="0.183" style="stop-color:#2EA147"/>
			<stop  offset="1" style="stop-color:#006838"/>
		</linearGradient>
		<path class="st0" d="M880.2,301.9c-5.6-5.8-11.3-11.5-17-17.3c-4.5-4.6-9-9.2-13.6-13.9l5.7,5.8l-5.7-5.8l-8.4-5.6l-0.4-0.1
			c-0.5,0-1-0.1-1.7-0.4c-3.2-1.1-6.4-2.3-9.5-3.4c-1.1,2.8-2.5,5.4-4.4,8c0.7,0.3,1.5,0.5,2.2,0.8c0.4,0.2,0.9,0.4,1.7,0.8
			c-1.2,0.5-2.1,0.8-2.9,1.2c-1.6,0.6-3.2,1.1-4.7,1.7c-4.7,4.9-10.6,7.8-17.7,8.3c-1.6,0.1-2.4,0.7-3.1,2.3
			c-1.3,3.1-2.9,5.8-4.8,8.1c14.5-5.1,29-10.3,43.6-15.4c0.9-0.3,2.7-0.2,3.2,0.4c8.5,8.5,16.9,17.1,25.3,25.7
			c0.2,0.2,0.3,0.4,0.5,0.9c-5,1.8-9.9,3.5-14.8,5.3c-16.6,5.9-33.2,11.8-49.8,17.6c-0.9,0.3-2.7,0.3-3.2-0.2
			c-7.9-7.9-15.6-15.8-23.6-24c-0.6,0.1-1.1,0.2-1.7,0.2c-6.6,0.7-12.7,0-18.2-2.4c-1.8,1.9-3.5,3.7-5.3,5.5
			c-6.6,6.7-13.2,13.4-19.7,20.1c-0.9,1-1.7,1.7-3.4,1.1c-21.2-7.6-42.5-15.1-63.7-22.7c-0.4-0.2-0.8-0.4-1.5-0.7
			c4.2-4.4,8.3-8.5,12.3-12.7c4.4-4.5,8.8-9,13.3-13.5c0.7-0.7,2.3-1.2,3.1-0.9c20.4,7.1,40.7,14.4,61,21.6
			c-2.3-1.4-4.4-3.2-6.5-5.3c-2.2-2.3-3.7-5.1-4.8-8.2c-0.1,0-0.1,0-0.2-0.1c-7.4,4.1-15,4.4-22.5,1.3c-6.3-2.6-11-7.8-13.2-13.9
			c-0.6-0.2-1.1-0.4-1.7-0.6c-0.3-0.1-0.5-0.3-1.2-0.7c0.7-0.3,1.5-0.5,2.2-0.8c-0.8-2.9-1.1-6.1-0.8-9.2c-3.9,1.4-7.8,2.8-11.7,4.2
			c-0.3,0.1-0.6,0.2-0.9,0.3l-5.3,1.9l-6.2,6.2c-9.2,9.4-18.4,18.8-27.6,28.2c-4,4.1-3.3,7,2.3,9c8.6,3.1,17.1,6.2,25.8,9.1
			c2.7,0.9,3.7,2,3.7,4.8c-0.2,17.7-0.1,35.4-0.1,53.1c0,4.2,0.6,5,4.7,6.5c24.5,8.7,48.9,17.4,73.4,26c2.1,0.7,4.9,0.7,7,0
			c24.5-8.5,49-17.3,73.4-26c4.1-1.5,4.7-2.3,4.7-6.5c0-18,0-36,0-54c0-1.9,0.6-2.9,2.6-3.5c9.3-3.2,18.5-6.5,27.7-9.8
			C882.6,308.4,883.4,305.1,880.2,301.9z M761.2,399.6c-2.1-0.8-4.3-1.5-6.4-2.3c-19.2-6.8-38.3-13.6-57.5-20.3
			c-2.2-0.8-3.1-1.7-3.1-4.1c0.1-15.3,0.1-30.5,0.1-45.8c0-0.9,0-1.8,0-3.1c11.7,4.2,22.9,8.1,34,12.1c4.6,1.6,5.7,1.5,9-1.9
			c7-7.1,13.9-14.2,20.9-21.4c0.8-0.9,1.6-1.8,2.4-2.7c0.2,0.1,0.5,0.2,0.7,0.4C761.2,340.1,761.2,369.7,761.2,399.6z M836.5,376.6
			c-21.4,7.5-42.7,15.1-64.1,22.7c-0.3,0.1-0.6,0.1-1.1,0.1c0-29.7,0-59.3,0-89.7c3.3,3.3,6.2,6.2,9,9.1
			c5.2,5.3,10.4,10.6,15.6,15.9c2.7,2.7,4.1,2.9,7.8,1.6c10.5-3.7,21-7.5,31.5-11.2c0.9-0.3,1.8-0.6,2.9-0.9c0.1,1,0.2,1.8,0.2,2.6
			c0,15.5,0,31.1,0,46.6C838.4,375,838.3,376,836.5,376.6z"/>
		
			<linearGradient id="SVGID_00000005952222143817207560000009176233317761284015_" gradientUnits="userSpaceOnUse" x1="840.7097" y1="290.7834" x2="715.7822" y2="211.7851">
			<stop  offset="0" style="stop-color:#C21F6C"/>
			<stop  offset="0.532" style="stop-color:#C4262C"/>
			<stop  offset="1" style="stop-color:#EF4B30"/>
		</linearGradient>
		<path style="fill:url(#SVGID_00000005952222143817207560000009176233317761284015_);" d="M742.1,284.5c-7.5,4.2-15.1,4.5-22.7,1.3
			c-11-4.6-16.9-16.8-14.1-28.8c0.2-0.7,0.2-1.4,0.5-2c2-3,0.7-5.3-0.9-8.1c-8.9-15.4-5.1-34.5,8.6-45.8c7.4-6.1,15.8-9.4,25.4-9.2
			c7.7,0.2,14.6,2.8,21,7.3c3.5-2.5,7.1-4.8,11.1-6.4c12.3-4.7,24.2-4.5,34.8,4.3c6.6,5.4,9.8,12.9,11.2,21.1
			c0.2,0.9,0.3,1.5,1.2,1.9c8.7,4.3,12.7,11.9,13.7,21.1c1.2,10.9-1.3,21-8.3,29.8c-5.1,6.4-11.6,10.2-19.9,10.8
			c-1.6,0.1-2.4,0.7-3.1,2.3c-4.8,11.1-13.3,17.3-25.2,18.6c-11,1.2-20.8-1.6-28.7-9.8C744.7,290.5,743.3,287.7,742.1,284.5z
			 M796.3,266.3c-1.8,1.2-3.2,2.5-4.9,3.3c-14.4,7.8-29.4,9-44.7,2.9c-10.7-4.2-18.3-11.6-21.4-23c-0.4-1.6-0.5-3.3-1.3-4.9
			c-6.8,4-11,9.7-11.1,17.6c-0.1,7.2,2.9,13.3,9.7,16.4c8.7,3.9,16.3,0.9,23.1-4.9c3.7,15.5,18.7,21.5,30.9,19.2
			C790.2,290.4,796.8,278.4,796.3,266.3z M766.1,204.9c3.1,0.2,5.9,0.4,8.6,1c11.4,2.5,18.6,9.3,20.1,20c1.4,10.3-2,19.4-12.5,23.9
			c-10.5,4.5-20.8,4.2-30.3-3.3c0.8,1.9,2,3.3,3.4,4.6c5.9,5.7,13.1,8.1,21,8.1c12.2,0.1,22.2-4.5,28.2-15.6
			c3.9-7.2,5.2-15.2,4.3-23.5c-1.7-14.7-13.4-24.4-28.1-22.9C775,197.9,770.2,200.5,766.1,204.9z M767.5,266.9
			c-4.8-1.6-8.8-3.3-12.5-5.8c-7.9-5.5-13.4-12.4-13.2-22.6c0.2-6.6,3.9-12.2,10-14.6c6.6-2.6,15-1.2,19.3,3.2c4,4.1,5.4,9.3,5.8,15
			c3.3-1.1,5.8-3.1,7.5-5.9c5.2-8.2,1.7-19-7.8-22.7c-11.9-4.6-23.4-3.2-33.8,4c-7.7,5.3-11.4,13.3-10.8,22.5
			C733,257.7,750.5,270.9,767.5,266.9z M754.7,205.5c-9.7-8.2-23.9-7.3-34.4,1.8c-10.8,9.4-14.5,25.8-8.1,36.3
			c2.6-2.8,5.7-4.8,9.2-5.9c1.8-0.6,2.4-1.7,2.6-3.3c1.8-11.5,8.4-19.6,18.5-25.1C746.3,207.2,750.3,206.2,754.7,205.5z M803.6,274
			c11.5-3.6,17-11.8,19.4-22.2c1.8-8,0.9-15.7-5.3-22.4c-0.4,2.3-0.6,4.2-1,6c-1.6,8.6-4.7,16.6-11.4,22.6c-0.8,0.7-0.9,1.5-0.9,2.4
			C804.6,264.7,804.7,269.1,803.6,274z M767.2,244.3c0.2,0,0.9-0.1,1.5-0.1c2,0.1,2.4-0.9,2.3-2.7c-0.5-5.8-7.1-11.2-12.9-10.1
			c-2.4,0.4-4.7,1.6-5.3,4c-0.6,2.3,1.2,3.9,2.9,5.2C759,243.1,762.7,244.1,767.2,244.3z"/>
	</g>
	<g>
		<g>
			<path d="M746.6,384.4c0,2-1.5,2.5-4.4,1.6c-3.7-1.1-6.6-3.1-8.8-5.8c-1.7-2.1-2.7-4.1-2.9-6l-0.6-4.5c-0.4-2.9-1.1-5-2.1-6.4
				c-1-1.4-2.8-2.5-5.1-3.2l-0.1,11.9c0,2.8,0,4.3,0,4.5c0,0.6,0.3,1.1,0.8,1.5c0.6,0.4,1.6,0.8,3.2,1.3c1,0.3,1.4,0.6,1.4,0.9
				c0,0.3-0.2,0.3-0.7,0.2l-5.8-1.8l-1-0.3c-0.7-0.2-1.4-0.4-2-0.6l-4.3-1.3c-0.4-0.1-0.9-0.3-1.4-0.4c-0.4-0.1-0.7-0.2-0.8-0.3
				l-2.8-0.9c-0.6-0.2-0.8-0.4-0.8-0.6c0-0.3,0.8-0.2,2.5,0.2c1.4,0.4,2.2,0.3,2.4-0.1c0.1-0.2,0.2-0.9,0.2-2.2l0.2-27.1
				c0-1.8,0-2.9-0.1-3.3c-0.1-0.4-0.3-0.7-0.8-1c-0.6-0.4-1.5-0.8-2.7-1.1c-0.9-0.3-1.3-0.6-1.3-0.9c0-0.2,0.2-0.3,0.5-0.3
				c0.4,0.1,1.3,0.3,2.9,0.8l1.1,0.3c0.7,0.2,1.4,0.4,2.1,0.6l2,0.6c0,0,0.5,0.1,1.3,0.4c0.8,0.2,1.5,0.5,2.2,0.7l3.5,1.1
				c5.6,1.7,9.4,3.3,11.4,4.7c1.6,1.1,2.9,2.4,3.8,3.9c0.9,1.5,1.4,3,1.4,4.5c0,3.4-2,5.2-6,5.6c-1.8,0.2-4.4-0.1-7.8-0.8l-0.1,0.3
				c4.3,1.6,7.5,3.6,9.4,5.9c1.9,2.4,3.1,5.6,3.5,9.7c0.3,3.2,0.8,5.4,1.5,6.4c0.7,1,1.4,1.6,2.1,1.8c0.6,0.2,0.9,0.1,0.9-0.1
				c0-0.1-0.2-0.4-0.7-0.8c-0.5-0.4-0.7-0.8-0.7-1.3c0-0.9,0.6-1.2,1.8-0.9C746.1,382.4,746.7,383.2,746.6,384.4z M731.7,353.2
				c0-4.5-2-7.4-6.1-8.6c-1.3-0.4-2.1-0.3-2.5,0.4c-0.2,0.4-0.3,2.3-0.3,5.6l-0.1,8.7c3.1,1,5.4,1,6.8,0.1
				C731,358.4,731.7,356.3,731.7,353.2z"/>
		</g>
		<g>
			<path d="M824.6,365.1c0,2.2-0.7,4.3-2.2,6.3c-1.5,2-3.6,3.7-6.3,5.1c-2.1,1.1-4.1,1.9-6,2.6c-1.9,0.7-7.4,2.4-16.5,5.2
				c-1.3,0.4-2,0.6-2.3,0.7c-0.2,0-0.4,0-0.4-0.3c0-0.3,0.6-0.7,1.9-1.1c1.3-0.4,2.1-0.8,2.4-1.2c0.3-0.4,0.5-1.3,0.5-2.6l-0.2-30
				c0-1-0.9-1.3-2.8-0.7c-1.4,0.4-2.1,0.5-2.1,0.2c0-0.3,0.4-0.6,1.3-0.9c0.8-0.3,1.7-0.5,2.5-0.8l14.4-4.5c9.2-2.9,13.9-1.5,13.9,4
				c0,4.6-3.4,8.5-10.2,11.7l-0.1,0.2c4-0.5,6.8-0.5,8.4,0.2C823.3,360.4,824.6,362.3,824.6,365.1z M813.8,350.2c0-5.1-1.8-7-5.3-6
				c-1.3,0.4-2.1,0.7-2.5,0.9c-0.9,0.5-1.3,1.2-1.3,2l0.1,13.8c3.5-1.1,5.9-2.4,7.2-3.8C813.2,355.8,813.8,353.4,813.8,350.2z
				 M815.1,367.8c0-4.9-1.7-7.3-4.9-7.1c-1.3,0.1-3.1,0.5-5.4,1.2l0,3c0,0.9,0,2.1-0.1,3.8c0,0.8,0,2.3,0,4.5c0,3.8,0.2,5.7,0.4,5.9
				c0.3,0.3,1.2,0.2,2.7-0.3C812.7,377.4,815.1,373.7,815.1,367.8z"/>
		</g>
	</g>
</g>
</svg>
