<?xml version="1.0" encoding="utf-8"?>
<!-- Generator: Adobe Illustrator 26.4.1, SVG Export Plug-In . SVG Version: 6.00 Build 0)  -->
<svg version="1.1" id="Layer_1" xmlns="http://www.w3.org/2000/svg" xmlns:xlink="http://www.w3.org/1999/xlink" x="0px" y="0px"
	 viewBox="0 0 960 600" style="enable-background:new 0 0 960 600;" xml:space="preserve">
<style type="text/css">
	.st0{fill:#D51920;}
	.st1{fill:#ED7C31;}
	.st2{fill:#FFDD00;}
	.st3{fill:#8DC63F;}
	.st4{fill:#A967AA;}
	.st5{fill:#00AEEF;}
	.st6{fill:#E81E25;}
</style>
<g>
	<path class="st0" d="M370.7,118.3c0.9,1,1.6,2.1,2.6,2.9c28.1,25.2,56.1,50.5,84.3,75.5c11.1,9.8,28.2,11.3,41.2,4.2
		c4-2.2,7.4-0.4,10.6,1.4c12.3,6.9,24.6,13.9,36.9,20.8c11.3,6.3,23,12,33.9,18.9c21.2,13.5,38.9,30.8,50.6,53.3
		c10.2,19.5,12.6,40.1,8.3,61.9c-9.5,48.1-41.1,76.4-83.6,95.2c-27.9,12.4-57.4,13.9-87.3,12.6c-14.7-0.6-29.3-1.8-43.5-6.4
		c-35.8-11.5-63.3-33.2-80.4-66.8c-9.9-19.6-11.4-39.9,0.1-59.8c13.6-23.4,37.4-31.5,60.6-28.5c7,0.9,7.3,2.2,8.8,9.1
		c1.6,7.3,3.5,14.7,6.7,21.4c5.6,11.5,15.8,18.5,26.9,24c19.6,9.7,40.2,15,62.1,13c8.6-0.8,17.5-3.4,25.4-6.9
		c9.9-4.4,12-10.4,9.8-21.1c-2-9.8-6.6-18.4-12.5-26.2c-14.2-18.8-32.6-32.4-54.6-40.8c-12.6-4.9-25.4-5.2-38.4-0.4
		c-3.5,1.3-8.2,1.3-11.9,0.2c-20.9-6-40.3-15.4-58.1-27.6c-14.2-9.8-22.5-24.2-27.3-40.5c-5.5-18.8-9.3-38.1-6.6-57.7
		c7.1-52.7,34.4-89.4,86.1-105.8c39.1-12.4,78.9-13.9,118.3-2.3c29.6,8.7,53.5,25.9,69.8,52.8c15.1,24.9,12.4,59.8-7.8,80.3
		c-13.9,14.1-31.3,22.3-51.9,20.4c-7-0.6-14.1-1.8-20.9-3.8c-10.5-3-14.9-9.9-14.6-20.7c0.1-2.3,0-4.7,0-7
		c-0.3-8.4-4.2-14.5-11-19.3c-24.9-17.5-49.7-35.1-74.6-52.7c-6.4-4.5-13-8.9-19.6-13.1c-1.3-0.8-3.2-0.6-4.9-0.9
		c0.8,1.4,1.3,3.2,2.5,4.1c16,12.7,32,25.3,48.1,37.9c5.7,4.5,11.5,8.9,17.2,13.5c2,1.6,4.3,3.5,2,6.5c-2.2,2.9-4.7,3.5-7.9,1.3
		c-18.5-13.4-37.1-26.7-55.6-40.1c-4.1-3-8-6.3-12.2-9.2c-1.2-0.8-3-0.7-4.5-1c0.6,1.4,0.9,3.2,2,4.1c14.1,11.7,28.4,23.3,42.6,34.9
		c6.3,5.2,12.6,10.4,18.8,15.6c1.3,1.1,2.5,2.4,3.7,3.7c1.8,1.9,3,4.3,0.7,6c-1.6,1.2-4.7,1.8-6.6,1.2c-2.6-0.9-4.8-3.1-7.2-4.9
		c-20.7-15.4-41.4-30.8-62.1-46.2c-0.7-0.5-1.4-1.2-2.1-1.5c-0.5-0.2-1.5-0.2-1.9,0.2c-0.3,0.4-0.4,1.5-0.1,1.9
		c0.7,0.9,1.6,1.6,2.5,2.4c20.7,17.9,41.4,35.8,62.2,53.7c0.2,0.2,0.4,0.4,0.7,0.6c2.5,2.2,5.6,4.4,2.7,8.3c-2,2.6-5.4,2.3-9.3-0.7
		c-11.1-8.7-22.2-17.5-33.4-26.2c-10.5-8.3-21.1-16.6-31.6-24.8c-1.1-0.9-2.3-1.6-3.4-2.4C371.5,117.5,371.1,117.9,370.7,118.3z"/>
	<g>
		<path class="st1" d="M304.5,510.4l-7.8,4.6c-1.5-2.5-2.9-4.2-4.2-5c-1.4-0.9-3.2-1.3-5.3-1.3c-2.7,0-4.9,0.8-6.7,2.3
			c-1.8,1.5-2.6,3.4-2.6,5.6c0,3.1,2.3,5.6,7,7.5l6.4,2.6c5.2,2.1,9,4.7,11.4,7.7c2.4,3,3.6,6.7,3.6,11.1c0,5.9-2,10.7-5.9,14.6
			c-3.9,3.9-8.8,5.8-14.7,5.8c-5.5,0-10.1-1.6-13.7-4.9c-3.6-3.3-5.8-7.9-6.7-13.9l9.8-2.2c0.4,3.8,1.2,6.3,2.3,7.8
			c2,2.8,4.9,4.1,8.7,4.1c3,0,5.5-1,7.5-3c2-2,3-4.6,3-7.7c0-1.2-0.2-2.4-0.5-3.4c-0.3-1-0.9-2-1.6-2.9c-0.7-0.9-1.7-1.7-2.8-2.4
			c-1.2-0.8-2.5-1.5-4.1-2.2l-6.2-2.6c-8.7-3.7-13.1-9.1-13.1-16.2c0-4.8,1.8-8.8,5.5-12c3.7-3.3,8.2-4.9,13.7-4.9
			C294.6,499.6,300.4,503.2,304.5,510.4z"/>
		<path class="st2" d="M381.5,549.2h-27.4l-7.1,15.5h-10.4l31.6-67.9l30.5,67.9h-10.6L381.5,549.2z M377.5,540.2l-9.5-21.7
			l-9.9,21.7H377.5z"/>
		<path class="st3" d="M442.5,500.9v54.8h18.8v9.1h-28.4v-63.9H442.5z"/>
		<path class="st4" d="M506.2,500.9v38.5c0,5.5,0.9,9.5,2.7,12c2.7,3.7,6.4,5.5,11.3,5.5c4.9,0,8.7-1.8,11.3-5.5
			c1.8-2.5,2.7-6.5,2.7-12v-38.5h9.6V542c0,6.7-2.1,12.3-6.3,16.6c-4.7,4.9-10.5,7.3-17.4,7.3c-6.9,0-12.6-2.4-17.3-7.3
			c-4.2-4.4-6.3-9.9-6.3-16.6v-41.1H506.2z"/>
		<path class="st5" d="M585.3,564.7v-63.9h13.4c6.4,0,11.5,0.6,15.2,1.9c4,1.2,7.6,3.4,10.9,6.3c6.6,6,9.9,13.9,9.9,23.7
			c0,9.8-3.4,17.8-10.3,23.8c-3.4,3-7.1,5.1-10.8,6.3c-3.5,1.2-8.5,1.8-15,1.8H585.3z M595,555.7h4.3c4.3,0,7.9-0.5,10.8-1.4
			c2.9-1,5.5-2.5,7.8-4.6c4.7-4.3,7.1-10,7.1-16.9c0-7-2.3-12.7-7-17c-4.2-3.9-10.4-5.8-18.7-5.8H595V555.7z"/>
		<path class="st6" d="M710.5,461.2c-0.2,1.3-0.4,2.5-0.6,3.7c-0.1,0.7-0.4,1.4-0.5,2.1c-0.1,0.4,0,0.7,0,1.1c0,0.1,0.1,0.2,0,0.2
			c-0.5,1.2-0.3,2.6-0.6,3.9c-0.3,1.4-0.4,2.9-0.8,4.3c-0.3,0.8-0.1,1.5-0.3,2.2c-0.9,4-1.7,8-2.8,11.9c-1.8,6.3-3.8,12.6-5.9,18.9
			c-3.6,11.2-7.2,22.3-10.3,33.7c-1.5,5.6-3.4,11.2-5.2,16.7c-0.6,1.7-1.3,3.4-3,4.5c-1.3,0.8-3.8,0.7-4.8-0.4
			c-0.7-0.8-1.4-1.6-2-2.5c-1-1.6-1.1-3.4-0.8-5.1c0-0.2,0.3-0.4,0.5-0.6c0.6-0.4,1.2-0.8,1.8-1.3c1.5-1.2,2.1-3,2.6-4.8
			c1.2-4.3,2.7-8.5,4.5-12.5c0.8-1.8,1.9-3.4,2.8-5.1c0.6-1.2,1-2.5,1.4-3.7c0.4-1.2,0.1-2.2-0.8-3.2c-1.5-1.7-3.2-3.2-5.3-4.1
			c-0.5-0.2-0.6-0.5-0.4-1c2.4-7.1,4.6-14.2,7.1-21.3c1.5-4.1,3.4-8.1,5.1-12.1c2-4.7,4.6-9,7.4-13.3c1.3-2,3-3.6,4.5-5.5
			c1.8-2.3,4.1-4.1,6.2-6.1C710.2,461.4,710.3,461.3,710.5,461.2z M678,559.8c0,0.1,0.1,0.2,0.1,0.4c0.3,0.1,0.7,0.4,1,0.3
			c0.6-0.1,0.5-0.8,0.4-1.2c-0.1-0.2-0.7-0.5-0.8-0.4C678.4,559,678.2,559.4,678,559.8z M687.2,534.5c-0.1,0-0.2,0.1-0.4,0.1
			c-0.1,0.3-0.5,0.9-0.3,1c0.2,0.3,0.7,0.4,1.1,0.5c0.1,0,0.5-0.6,0.4-0.8C687.8,535,687.4,534.8,687.2,534.5z M684.1,547.5
			c-0.5-0.2-0.9-0.6-1.1-0.5c-0.3,0.2-0.3,0.6-0.5,0.9c0.3,0.1,0.6,0.4,0.8,0.4C683.5,548.2,683.7,547.9,684.1,547.5z"/>
	</g>
</g>
</svg>
