<?xml version="1.0" encoding="utf-8"?>
<!-- Generator: Adobe Illustrator 26.1.0, SVG Export Plug-In . SVG Version: 6.00 Build 0)  -->
<svg version="1.1" id="a" xmlns="http://www.w3.org/2000/svg" xmlns:xlink="http://www.w3.org/1999/xlink" x="0px" y="0px"
	 viewBox="0 0 360 360" style="enable-background:new 0 0 360 360;" xml:space="preserve">
<style type="text/css">
	.st0{enable-background:new    ;}
	.st1{fill:#C66817;}
</style>
<g class="st0">
	<path class="st1" d="M55.1,202.5v1.5H31.7v-1.5h1.5c1.7-2.7,2.4-9.9,2.4-11.8c0-1.8,0-2.5-0.3-4.7h-8.6c-0.3,1.6-0.3,3.4-0.3,4.5
		c0,3.4,0.9,9.1,2.4,12h1.5v1.5h-15v-1.5h1.5c7.2-9.5,12.2-37.9,18.3-60.2h3.3c2.1,16.8,7.2,44.6,15.5,60.2H55.1z M35,184.2
		c-0.2-3.5-2.9-16-3.8-20.2h-0.2c-1.1,4.1-3.9,17.1-4.2,20.2H35z"/>
	<path class="st1" d="M56.1,204v-1.5h1.5c1.7-3.7,5.3-14,5.3-31.4c0-16.3-4.4-25-5.5-27.3h-1.3v-1.5h25.6c3.2,0,15.3,2.6,15.3,14.8
		c0,9.9-5.9,14.3-13.6,15.9v0.2c5.1,1.1,14.6,4.9,14.6,15.4c0,10.6-7.8,15.5-13.6,15.5H56.1z M74,172.1h1.8c4.6,0,8.1-3.3,8.1-13.3
		c0-8.5-0.8-15-5-15c-4.7,0-4.9,17.6-4.9,24.4V172.1z M74,180.9c0,20.1,4.4,21.6,5.7,21.6c1.8,0,5-1.3,5-12.8
		c0-11.3-3.9-15.9-8.1-15.9H74V180.9z"/>
	<path class="st1" d="M121.9,204.3c-5.5,0-20-3.6-20-31.2c0-27.3,14.6-31.1,20-31.1c5.3,0,19.7,3.8,19.7,31.1
		C141.6,200.7,127.2,204.3,121.9,204.3z M121.9,143.5c-5.2,0-5.6,7.3-5.6,29.8c0,22.3,0.4,29.6,5.6,29.6c4.9,0,5.3-7.3,5.3-29.6
		C127.2,150.8,126.8,143.5,121.9,143.5z"/>
	<path class="st1" d="M176.8,169.2c0-6.7-2.8-20.1-4.9-25.4h-1.7v-1.5h15.8v1.5h-1.3c-4.3,9.5-5.8,20.8-5.8,25.4v18.3
		c0,5-0.5,16.8-10.9,16.8c-4.3,0-16.8-0.5-16.8-15.8v-22.1c0-8.1-2.3-16.8-5.3-22.6h-1.6v-1.5h24.6v1.5h-1.3
		c-3.9,6-4.4,27.5-4.4,30.7c0,22,0.3,27.5,6.9,27.5c4.4,0,6.8-4.7,6.8-14.5V169.2z"/>
	<path class="st1" d="M196,204v-1.5h0.8c1.6-2.9,6-14.5,6-31.4c0-8.3,0-27-2.8-27c-2.1,0-1.8,1.6-1.8,2c0,0.7,0.5,4.9,0.5,6.8
		c0,6.2-2.4,13.6-10.9,13.6c-0.2,0-0.2-0.2-0.2-0.3c1.3-2.5,1.8-5.3,1.8-7.2c0-4.8-0.8-12.4-2.8-16.4c0-0.2,0-0.3,0.2-0.3h43.2
		c0.2,0,0.2,0.2,0.2,0.3c-2,4-2.8,11.7-2.8,16.4c0,1.8,0.5,4.6,1.8,7.2c0.1,0.2,0,0.3-0.2,0.3c-8.5,0-10.9-7.4-10.9-13.6
		c0-2,0.5-6.1,0.5-6.8c0-0.3,0.2-2-1.8-2c-2.8,0-2.8,18.7-2.8,27c0,16.9,4.6,28.5,5.9,31.4h0.8v1.5H196z"/>
	<path class="st1" d="M251.8,204v-1.5h1.2c1.2-2.1,5-10.9,5-29.6c0-17.3-3.9-26.4-4.9-29.1h-1.3v-1.5h22v1.5h-1.3
		c0,0-0.7,5.1-0.7,9.7c0,3.1,1.3,15.4,5,23.9h0.2c1.6-9.4,3-16.7,3-22.6c0-6.1-1-9-1.3-11h-1.4v-1.5h23.8v1.5h-1.2
		c-1.6,4.4-4.9,13.2-4.9,28.9c0,16.9,4.6,26.9,6.1,29.8h0.9v1.5h-24.2v-1.5h1.4c1.5-2.9,4.8-12.5,4.8-29.8c0-6.7-0.7-16.3-1.4-20
		h-0.2c-0.2,4.7-7.6,46.2-8.5,51.2h-2.1c-1.3-5.7-9.4-40.2-11.9-50h-0.2c-0.1,4.9-0.1,15-0.1,19.1c0,4.7,1,21.3,6,29.4h1.6v1.5
		H251.8z"/>
	<path class="st1" d="M321,173.8v5.2c0,21,3.8,23.9,5.3,23.9c1.1,0,2.5-1.5,2.5-4.1c0-7,2-16.4,11-18.7c0.3-0.1,0.6,0.2,0.5,0.3
		c-1.9,3.9-1.5,6.8-1.5,9.1c0,4.6,1.2,11.3,2.6,14.1c0.1,0.2,0.2,0.3-0.2,0.3h-38.1v-1.5h1.2c1.3-2.9,5.7-13.3,5.7-30.3
		c0-14.8-4.7-25.9-5.7-28.4h-1.2v-1.5h36.4c0.3,0,0.4,0.2,0.3,0.5c-1.1,3.9-1.8,9.1-1.8,11.7c0,2.5,0.4,8.1,2,11.3
		c0.2,0.3,0,0.5-0.3,0.4c-12.1-3-12.2-14.1-12.2-17.8c0-2.2-0.3-4.5-2-4.5c-3.6,0-4.7,13.5-4.7,23.9v4.2h1.6c2.9,0,4.9-2,4.9-5.8
		c0-1.7-0.6-3.2-1.6-5.1c-0.1-0.2-0.2-0.3,0-0.5l0.7-0.5c0.2-0.2,0.4-0.2,0.5,0c1.3,1.6,5.3,5.8,5.3,12.3c0,6.7-2.9,10.5-5,12.7
		c-0.2,0.2-0.3,0.3-0.5,0.2l-0.8-0.7c-0.2-0.2-0.2-0.3,0.2-0.8c1.6-2.1,1.4-5.8,0.7-7.2c-0.9-2-2.8-2.7-4.4-2.7H321z"/>
</g>
</svg>
