<?xml version="1.0" encoding="utf-8"?>
<!-- Generator: Adobe Illustrator 26.4.1, SVG Export Plug-In . SVG Version: 6.00 Build 0)  -->
<svg version="1.1" id="Layer_1" xmlns="http://www.w3.org/2000/svg" xmlns:xlink="http://www.w3.org/1999/xlink" x="0px" y="0px"
	 viewBox="0 0 66.4 65.5" style="enable-background:new 0 0 66.4 65.5;" xml:space="preserve">
<style type="text/css">
	.st0{fill:none;stroke:#000000;stroke-width:6;stroke-miterlimit:10;}
	.st1{fill:none;stroke:#000000;stroke-width:6;stroke-linecap:round;stroke-linejoin:round;stroke-miterlimit:10;}
	.st2{fill:url(#SVGID_1_);}
	.st3{fill:url(#SVGID_00000040552432968975163380000017098669424606181557_);}
	.st4{fill:url(#SVGID_00000119814026396410270420000000501242654540404367_);}
	.st5{fill:url(#SVGID_00000124151505825870321140000000224730383862686882_);}
	.st6{fill:url(#SVGID_00000056406801346121883530000008338347303611608984_);}
	.st7{fill:url(#SVGID_00000143578577113322218830000011315461246433546171_);}
	.st8{fill:url(#SVGID_00000013915908719892008620000000339234942294392252_);}
	.st9{fill:url(#SVGID_00000154400136663365118020000013928981192328733333_);}
	.st10{fill:url(#SVGID_00000142887254026833153010000014072820929821541302_);}
	.st11{fill:url(#SVGID_00000009572207434537254390000000075847394961768086_);}
	.st12{fill:url(#SVGID_00000029726362190686914720000015708208278258411422_);}
	.st13{fill:url(#SVGID_00000163050589893940318510000011292513279554978688_);}
	.st14{fill:url(#SVGID_00000054256940319781680690000010047675398372215171_);}
	.st15{fill:url(#SVGID_00000077307618236094354580000013170758151301044908_);}
	.st16{fill:url(#SVGID_00000057107760720653211940000007239344290429743499_);}
	.st17{fill:url(#SVGID_00000168094614543667071650000005535913825438198175_);}
	.st18{fill:url(#SVGID_00000091004471599768923190000001656403785756293299_);}
	.st19{fill:url(#SVGID_00000016776744872456144380000016994193128135269286_);}
	.st20{fill:url(#SVGID_00000142144245236721420440000015920912362789948071_);}
	.st21{fill:url(#SVGID_00000161620423164459147190000006881454898241607605_);}
	.st22{fill:url(#SVGID_00000121256189852269877470000007579220076711593138_);}
	.st23{fill:none;stroke:url(#SVGID_00000053519437807238904290000005183356729473949627_);stroke-miterlimit:10;}
</style>
<g>
	<g>
		<path d="M22,26c0.4,0.2,0.6,0.4,0.6,0.7c0,0.1,0,0.5,0.1,1.2c0,0.7,0.1,1.2,0.1,1.4c0,0.8,0,1.4-0.1,1.8c-0.1,0.4-0.3,0.7-0.5,0.9
			c-0.3,0.3-0.6,0.4-0.6,0.5c-0.1,0.1-0.1,0.3-0.1,0.5c0,0.2,0.1,0.5,0.2,0.7c0.2,0.2,0.4,0.3,0.6,0.4c0.8,0.2,1.8,0.3,3.2,0.3
			c2.5,0,3.7-0.5,3.7-1.5c0-0.2,0-0.3-0.1-0.5c-0.1-0.1-0.2-0.3-0.5-0.4c-0.3-0.2-0.5-0.4-0.6-0.7c-0.1-0.2-0.1-0.6-0.1-1.2v-6.6
			c0-0.5-0.2-0.7-0.6-0.7c-0.5,0-1.3,0.1-2.3,0.3c-1,0.2-1.9,0.5-2.7,0.8c-0.6,0.2-0.9,0.6-0.9,1.1C21.3,25.5,21.5,25.8,22,26z"/>
		<path d="M22.2,21.8c0.3,0.2,0.8,0.3,1.3,0.3c1.3,0,2.4-0.3,3.4-0.8c0.6-0.3,0.9-0.8,0.9-1.4c0-0.4-0.2-0.8-0.6-1s-0.9-0.4-1.6-0.4
			c-0.8,0-1.7,0.2-2.7,0.6c-0.9,0.4-1.4,0.9-1.4,1.5C21.5,21.1,21.7,21.5,22.2,21.8z"/>
		<path d="M30.5,22.1c0.4,0.3,0.7,0.7,0.8,1.2c0.1,0.5,0.2,1.7,0.2,3.6c0,1.8-0.1,3.2-0.2,4.2c-0.1,0.6-0.3,0.9-0.5,1.1
			c-0.3,0.1-0.5,0.3-0.6,0.4c-0.1,0.1-0.1,0.2-0.1,0.4c0,0.2,0.1,0.4,0.3,0.7c0.2,0.2,0.4,0.4,0.7,0.5c0.6,0.2,1.6,0.3,3.1,0.3
			c1.3,0,2.2-0.1,2.8-0.3c0.3-0.1,0.5-0.2,0.7-0.4c0.2-0.2,0.3-0.4,0.3-0.7c0-0.2,0-0.4-0.1-0.5s-0.3-0.2-0.6-0.3
			c-0.3-0.1-0.5-0.4-0.6-0.6c0-0.3-0.1-1.2-0.1-2.8v-3.7c0-1.1,0.1-2.4,0.2-3.8c0.1-0.9,0.1-1.4,0.1-1.7c0-0.7-0.3-1.1-0.9-1.1
			c-0.4,0-1,0.1-1.8,0.2c-0.8,0.1-1.5,0.3-2,0.5c-0.8,0.2-1.4,0.5-1.7,0.8c-0.4,0.3-0.5,0.6-0.5,1c0,0.2,0.1,0.4,0.2,0.6
			C29.9,21.7,30.1,21.9,30.5,22.1z"/>
		<path d="M39.1,21.8c0.3,0.2,0.8,0.3,1.3,0.3c1.3,0,2.4-0.3,3.4-0.8c0.6-0.3,0.9-0.8,0.9-1.4c0-0.4-0.2-0.8-0.6-1
			c-0.4-0.2-0.9-0.4-1.6-0.4c-0.8,0-1.7,0.2-2.7,0.6c-0.9,0.4-1.4,0.9-1.4,1.5C38.4,21.1,38.6,21.5,39.1,21.8z"/>
		<path d="M38.9,26c0.4,0.2,0.6,0.4,0.6,0.7c0,0.1,0,0.5,0.1,1.2c0,0.7,0.1,1.2,0.1,1.4c0,0.8,0,1.4-0.1,1.8
			c-0.1,0.4-0.3,0.7-0.5,0.9c-0.3,0.3-0.6,0.4-0.6,0.5c-0.1,0.1-0.1,0.3-0.1,0.5c0,0.2,0.1,0.5,0.2,0.7c0.2,0.2,0.4,0.3,0.6,0.4
			c0.8,0.2,1.8,0.3,3.2,0.3c2.5,0,3.7-0.5,3.7-1.5c0-0.2,0-0.3-0.1-0.5c-0.1-0.1-0.2-0.3-0.5-0.4c-0.3-0.2-0.5-0.4-0.6-0.7
			c-0.1-0.2-0.1-0.6-0.1-1.2v-6.6c0-0.5-0.2-0.7-0.6-0.7c-0.5,0-1.3,0.1-2.3,0.3c-1,0.2-1.9,0.5-2.7,0.8c-0.6,0.2-0.9,0.6-0.9,1.1
			C38.2,25.5,38.4,25.8,38.9,26z"/>
		<path d="M46.3,36.3l-4.5-0.7c-0.8-0.1-1.5,0.4-1.6,1.2c-0.1,0.8,0.4,1.5,1.2,1.6l0.9,0.1c-0.9,2.6-4.5,4.6-8.6,4.6
			c-4.2,0-7.8-2-8.7-4.7l0.5-0.1c0.8-0.1,1.3-0.9,1.1-1.6c-0.1-0.8-0.9-1.3-1.6-1.1L21,36.3c-0.8,0.1-1.3,0.9-1.1,1.6
			c0.1,0.7,0.7,1.1,1.4,1.1c0.1,0,0.2,0,0.3,0l0.5-0.1c1.1,4,5.8,7,11.4,7c5.7,0,10.4-3,11.4-7l0.9,0.1c0.1,0,0.2,0,0.2,0
			c0.7,0,1.3-0.5,1.4-1.2C47.6,37.1,47.1,36.4,46.3,36.3z"/>
	</g>
	<path d="M33.7,5c14.5,0,26.2,11.7,26.2,26.2c0,14.5-11.7,26.2-26.2,26.2S7.5,45.7,7.5,31.2C7.5,16.7,19.2,5,33.7,5 M33.7,2
		C17.6,2,4.5,15.1,4.5,31.2s13.1,29.2,29.2,29.2c16.1,0,29.2-13.1,29.2-29.2S49.8,2,33.7,2L33.7,2z"/>
</g>
</svg>
