<?xml version="1.0" encoding="utf-8"?>
<!-- Generator: Adobe Illustrator 26.4.1, SVG Export Plug-In . SVG Version: 6.00 Build 0)  -->
<svg version="1.1" id="Layer_1" xmlns="http://www.w3.org/2000/svg" xmlns:xlink="http://www.w3.org/1999/xlink" x="0px" y="0px"
	 viewBox="0 0 335.9 65.5" style="enable-background:new 0 0 335.9 65.5;" xml:space="preserve">
<style type="text/css">
	.st0{fill:none;stroke:#000000;stroke-width:6;stroke-miterlimit:10;}
	.st1{fill:none;stroke:#000000;stroke-width:6;stroke-linecap:round;stroke-linejoin:round;stroke-miterlimit:10;}
	.st2{fill:url(#SVGID_1_);}
	.st3{fill:url(#SVGID_00000168092363483848267170000009615298183389491390_);}
	.st4{fill:url(#SVGID_00000111155916159258124520000017943872562335005083_);}
	.st5{fill:url(#SVGID_00000109006782092925067490000015649721283267003271_);}
	.st6{fill:url(#SVGID_00000027604501342282212930000008181370043103277717_);}
	.st7{fill:url(#SVGID_00000116933983420932160120000004699861991557249449_);}
	.st8{fill:url(#SVGID_00000170960159660324766090000000848954789929934763_);}
	.st9{fill:url(#SVGID_00000063617526461658490590000013168147420032349608_);}
	.st10{fill:url(#SVGID_00000111184209838170197970000004108381747252001164_);}
	.st11{fill:url(#SVGID_00000041277671309738265490000017208007190026137235_);}
	.st12{fill:url(#SVGID_00000011032387230441322470000002183562075235752854_);}
	.st13{fill:url(#SVGID_00000034792883693721081010000011436910636317766034_);}
	.st14{fill:url(#SVGID_00000127016806198343994450000008916073114141007030_);}
	.st15{fill:url(#SVGID_00000034788126391401999700000000415010070316371631_);}
	.st16{fill:url(#SVGID_00000057862437576856232350000012951252444635773592_);}
	.st17{fill:url(#SVGID_00000041289318295310320900000007311288951311857538_);}
	.st18{fill:url(#SVGID_00000005968226810701685270000010552194440363261876_);}
	.st19{fill:url(#SVGID_00000043446485118134012710000014412101041087850429_);}
	.st20{fill:url(#SVGID_00000042704553175068123970000010040105627986598574_);}
	.st21{fill:url(#SVGID_00000039126675093240357230000001448598297502393734_);}
	.st22{fill:url(#SVGID_00000137089706847997913780000005464890536788933821_);}
	.st23{fill:none;stroke:url(#SVGID_00000005961750661781441570000008196713740101495182_);stroke-miterlimit:10;}
</style>
<g>
	<path d="M32.7,3.9C32,3.4,30.9,3,29.4,2.8c-1.9-0.3-3.7-0.5-5.6-0.5c-1.9,0-3.7,0.2-5.4,0.5c-1.6,0.3-2.7,0.8-3.4,1.3
		c-0.7,0.5-1,1.2-1,2.1c0,0.4,0.1,0.8,0.4,1.2c0.3,0.4,0.6,0.6,1,0.7c0.8,0.2,1.3,0.4,1.5,0.5c0.2,0.1,0.4,0.3,0.6,0.6
		c0.3,0.4,0.5,0.9,0.6,1.6c0.1,0.6,0.2,2.8,0.3,6.4l0,6l0,2.2c0,1.6-0.3,2.9-1,3.9c-0.7,1-1.5,1.5-2.6,1.5c-0.6,0-1.1-0.2-1.5-0.5
		s-0.6-0.7-0.6-1.3c0-0.2,0-0.4,0-0.5c0.2-0.8,0.3-1.4,0.3-1.7c0-1.3-0.5-2.5-1.6-3.4C10.5,22.5,9.2,22,7.7,22
		c-1.5,0-2.8,0.5-3.9,1.6c-1,1.1-1.5,2.4-1.5,4c0,1.3,0.3,2.6,1,3.7c0.7,1.2,1.5,2.1,2.6,2.8c1.3,0.8,2.9,1.5,4.7,2
		c1.8,0.5,3.6,0.7,5.4,0.7c2,0,4-0.3,5.8-1c1.8-0.6,3.3-1.5,4.5-2.6c1.4-1.4,2.4-3.2,2.9-5.6c0.2-0.8,0.3-1.7,0.3-2.5
		c0-0.9,0.1-3.5,0.1-7.8c0.1-4.5,0.2-7,0.4-7.7C30.2,9,30.8,8.5,31.7,8c0.8-0.4,1.3-0.8,1.6-1c0.2-0.3,0.4-0.7,0.4-1.2
		C33.7,4.9,33.3,4.3,32.7,3.9z"/>
	<path d="M56.1,14.5c-2.2-1.8-4.8-2.6-7.9-2.6c-1.9,0-3.7,0.4-5.4,1.1c-2.2,0.9-4,2.3-5.5,4.2c-1.7,2.2-2.5,4.6-2.5,7.4
		c0,2,0.5,4,1.4,5.8c0.7,1.4,1.7,2.6,2.8,3.5c2.3,2,5.2,3,8.6,3c3.4,0,6.4-1,9-2.9c1.5-1.1,2.2-2.2,2.2-3.4c0-0.6-0.2-1.1-0.6-1.6
		c-0.4-0.5-0.8-0.8-1.2-0.8c-0.3,0-0.8,0.2-1.3,0.6c-0.6,0.4-1.4,0.8-2.4,1.1c-1,0.3-1.8,0.5-2.6,0.5c-1.3,0-2.6-0.5-3.7-1.4
		c-1.1-0.9-1.7-1.9-1.7-3c0-0.4,0.3-0.7,0.8-0.7h11.5c0.7,0,1.3-0.3,1.7-1c0.4-0.7,0.7-1.5,0.7-2.6c0-1.3-0.4-2.6-1.1-4
		C58.1,16.4,57.2,15.4,56.1,14.5z M49.2,20.7h-2.5c-0.6,0-1-0.1-1.2-0.3c-0.2-0.2-0.4-0.5-0.4-1c0-0.7,0.2-1.4,0.7-2
		c0.5-0.7,1.2-1.1,2.2-1.1c0.8,0,1.5,0.3,2,0.8c0.5,0.6,0.8,1.3,0.8,2.2C50.7,20.2,50.2,20.7,49.2,20.7z"/>
	<path d="M75.1,20.6c-1.5-0.7-2.3-1.5-2.3-2.2c0-0.5,0.2-0.9,0.5-1.2s0.7-0.5,1.2-0.5c0.7,0,1.5,0.5,2.6,1.5c1,0.9,1.7,1.6,2.2,1.8
		s1,0.4,1.5,0.4c0.7,0,1.3-0.2,1.7-0.6c0.5-0.4,0.7-1,0.7-1.6c0-0.7-0.2-1.5-0.6-2.4c-0.4-0.9-0.9-1.8-1.5-2.5
		c-0.8-1-1.5-1.4-2.3-1.4c-0.3,0-0.6,0.1-1,0.2c-0.8,0.3-1.3,0.4-1.6,0.4c-0.2,0-0.6,0-0.9-0.1c-1.8-0.4-3.2-0.5-4-0.5
		c-2.9,0-5.2,1-6.9,3c-1.2,1.4-1.8,3.1-1.8,5c0,1.8,0.6,3.4,1.7,4.7c1.2,1.4,3.1,2.7,5.7,4c1.3,0.6,1.9,1.3,1.9,2
		c0,0.5-0.2,0.9-0.5,1.1c-0.3,0.3-0.8,0.4-1.3,0.4c-0.5,0-1-0.1-1.4-0.4c-0.4-0.3-1-0.8-1.7-1.5c-1.2-1.3-2-2.1-2.4-2.4
		c-0.4-0.3-0.8-0.5-1.3-0.5c-1.2,0-1.8,0.7-1.8,2.2c0,0.9,0.3,2,0.9,3.3c0.6,1.3,1.2,2.2,1.9,2.8c0.4,0.4,1,0.6,1.8,0.6
		c0.2,0,0.6,0,1-0.1c0.3,0,0.5-0.1,0.7-0.1c0.2,0,1.1,0.1,2.7,0.3c1.7,0.2,2.8,0.3,3.5,0.3c2.5,0,4.6-0.7,6.3-2c2-1.5,3-3.4,3-5.7
		c0-1.8-0.6-3.3-1.9-4.5C79.9,23.2,77.8,21.8,75.1,20.6z"/>
	<path d="M105.2,24.6c-1.5-1.5-3.6-2.8-6.3-4.1c-1.5-0.7-2.3-1.5-2.3-2.2c0-0.5,0.2-0.9,0.5-1.2s0.7-0.5,1.2-0.5
		c0.7,0,1.5,0.5,2.6,1.5c1,0.9,1.7,1.6,2.2,1.8s1,0.4,1.5,0.4c0.7,0,1.3-0.2,1.7-0.6c0.5-0.4,0.7-1,0.7-1.6c0-0.7-0.2-1.5-0.6-2.4
		c-0.4-0.9-0.9-1.8-1.5-2.5c-0.8-1-1.5-1.4-2.3-1.4c-0.3,0-0.6,0.1-1,0.2c-0.8,0.3-1.3,0.4-1.6,0.4c-0.2,0-0.6,0-0.9-0.1
		c-1.8-0.4-3.2-0.5-4-0.5c-2.9,0-5.2,1-6.9,3c-1.2,1.4-1.8,3.1-1.8,5c0,1.8,0.6,3.4,1.7,4.7c1.2,1.4,3.1,2.7,5.7,4
		c1.3,0.6,1.9,1.3,1.9,2c0,0.5-0.2,0.9-0.5,1.1c-0.3,0.3-0.8,0.4-1.3,0.4c-0.5,0-1-0.1-1.4-0.4c-0.4-0.3-1-0.8-1.7-1.5
		c-1.2-1.3-2-2.1-2.4-2.4c-0.4-0.3-0.8-0.5-1.3-0.5c-1.2,0-1.8,0.7-1.8,2.2c0,0.9,0.3,2,0.9,3.3c0.6,1.3,1.2,2.2,1.9,2.8
		c0.4,0.4,1,0.6,1.8,0.6c0.2,0,0.6,0,1-0.1c0.3,0,0.5-0.1,0.7-0.1c0.2,0,1.1,0.1,2.7,0.3c1.7,0.2,2.8,0.3,3.5,0.3
		c2.5,0,4.6-0.7,6.3-2c2-1.5,3-3.4,3-5.7C107.1,27.4,106.5,25.9,105.2,24.6z"/>
	<path d="M110.3,18.8c0.8,0.4,1.3,0.9,1.4,1.5c0,0.2,0.1,1.1,0.2,2.6c0.1,1.5,0.1,2.5,0.1,3c0,1.7-0.1,2.9-0.3,3.8
		c-0.2,0.8-0.6,1.5-1.1,1.8c-0.7,0.5-1.2,0.9-1.4,1.2c-0.2,0.2-0.3,0.6-0.3,1c0,0.5,0.2,1,0.5,1.4c0.4,0.4,0.8,0.7,1.4,0.9
		c1.7,0.5,4,0.7,6.8,0.7c5.3,0,8-1.1,8-3.2c0-0.4-0.1-0.7-0.3-1c-0.2-0.3-0.5-0.6-1-0.9c-0.6-0.4-1-0.9-1.2-1.4
		c-0.2-0.5-0.3-1.3-0.3-2.5V13.5c0-1-0.4-1.5-1.3-1.5c-1.1,0-2.8,0.2-4.8,0.7c-2.1,0.5-4,1.1-5.9,1.8c-1.3,0.5-2,1.3-2,2.3
		C108.8,17.7,109.3,18.3,110.3,18.8z"/>
	<path d="M110.7,9.8c0.7,0.5,1.6,0.7,2.8,0.7c2.8,0,5.2-0.6,7.2-1.7c1.3-0.7,1.9-1.7,1.9-3c0-0.9-0.4-1.6-1.2-2.1s-2-0.8-3.4-0.8
		c-1.8,0-3.7,0.4-5.7,1.2c-2,0.8-3,1.9-3,3.3C109.2,8.4,109.7,9.2,110.7,9.8z"/>
	<path d="M128.4,10.4c0.9,0.6,1.5,1.4,1.7,2.5c0.2,1.1,0.3,3.7,0.3,7.7c0,3.9-0.1,6.9-0.4,9c-0.1,1.2-0.5,2-1.2,2.3
		c-0.7,0.3-1.1,0.5-1.3,0.8s-0.3,0.5-0.3,0.9c0,0.5,0.2,1,0.6,1.4c0.4,0.4,0.9,0.8,1.4,1c1.3,0.5,3.5,0.7,6.6,0.7
		c2.8,0,4.8-0.2,5.9-0.5c0.6-0.2,1.1-0.5,1.5-0.9c0.4-0.4,0.6-0.9,0.6-1.5c0-0.4-0.1-0.7-0.3-1s-0.6-0.5-1.2-0.7
		c-0.7-0.3-1.1-0.7-1.2-1.3c-0.1-0.6-0.2-2.6-0.2-6.1v-7.8c0-2.4,0.2-5.1,0.4-8c0.2-1.9,0.2-3.1,0.2-3.6c0-1.6-0.6-2.4-1.9-2.4
		c-0.8,0-2.1,0.2-3.9,0.5c-1.8,0.3-3.3,0.6-4.4,1c-1.7,0.5-2.9,1.1-3.7,1.7c-0.8,0.6-1.1,1.3-1.1,2.1c0,0.5,0.1,0.9,0.4,1.3
		C127.2,9.6,127.7,10,128.4,10.4z"/>
	<path d="M146.8,9.8c0.7,0.5,1.6,0.7,2.8,0.7c2.8,0,5.2-0.6,7.2-1.7c1.3-0.7,1.9-1.7,1.9-3c0-0.9-0.4-1.6-1.2-2.1s-2-0.8-3.4-0.8
		c-1.8,0-3.7,0.4-5.7,1.2c-2,0.8-3,1.9-3,3.3C145.4,8.4,145.8,9.2,146.8,9.8z"/>
	<path d="M146.4,18.8c0.8,0.4,1.3,0.9,1.4,1.5c0,0.2,0.1,1.1,0.2,2.6c0.1,1.5,0.1,2.5,0.1,3c0,1.7-0.1,2.9-0.3,3.8
		c-0.2,0.8-0.6,1.5-1.1,1.8c-0.7,0.5-1.2,0.9-1.4,1.2c-0.2,0.2-0.3,0.6-0.3,1c0,0.5,0.2,1,0.5,1.4c0.4,0.4,0.8,0.7,1.4,0.9
		c1.7,0.5,4,0.7,6.8,0.7c5.3,0,8-1.1,8-3.2c0-0.4-0.1-0.7-0.3-1c-0.2-0.3-0.5-0.6-1-0.9c-0.6-0.4-1-0.9-1.2-1.4
		c-0.2-0.5-0.3-1.3-0.3-2.5V13.5c0-1-0.4-1.5-1.3-1.5c-1.1,0-2.8,0.2-4.8,0.7c-2.1,0.5-4,1.1-5.9,1.8c-1.3,0.5-2,1.3-2,2.3
		C144.9,17.7,145.4,18.3,146.4,18.8z"/>
	<path d="M193.5,30.9c-0.2-0.3-0.3-0.8-0.3-1.4l-0.3-8.6c-0.1-2-0.4-3.5-0.8-4.6c-0.4-1-1.1-1.9-2.2-2.7c-1.5-1.1-3.2-1.6-5.3-1.6
		c-2.7,0-4.7,1-6.1,3c-0.4,0.6-0.9,0.9-1.2,0.9c-0.7,0-1-0.4-1-1.2c0-0.1,0-0.2,0-0.3c0-0.4,0-0.6,0-0.6c0-0.5-0.2-0.9-0.5-1.3
		s-0.7-0.5-1.2-0.5c-0.5,0-1.5,0.2-3,0.6s-3,0.9-4.5,1.4c-1.8,0.6-2.9,1.2-3.5,1.6c-0.6,0.4-0.9,0.9-0.9,1.6c0,0.6,0.4,1.2,1.1,1.6
		c0.8,0.5,1.3,0.9,1.5,1.3c0.2,0.4,0.3,1.1,0.3,2.2c0,2-0.1,4-0.2,5.8c-0.1,1.6-0.2,2.5-0.3,2.9c-0.1,0.4-0.4,0.8-0.8,1.1
		c-0.5,0.4-0.9,0.7-1,0.9c-0.1,0.2-0.2,0.5-0.2,0.9c0,1.9,2.3,2.8,6.8,2.8c2.8,0,4.9-0.2,6.3-0.7c1.3-0.5,2-1.2,2-2.1
		c0-0.4-0.1-0.7-0.3-1c-0.7-1-1.1-1.7-1.2-2.1s-0.2-1-0.2-2V24c0-1.8,0.2-3.1,0.6-3.8c0.4-0.7,1.2-1.1,2.2-1.1
		c1.1,0,1.9,0.4,2.3,1.3c0.5,1.1,0.8,2.7,0.8,5c0,3.9-0.3,6.2-1,6.8c-0.6,0.6-0.9,1-1,1.1c-0.1,0.2-0.1,0.4-0.1,0.7
		c0,0.9,0.5,1.6,1.4,2c0.9,0.4,2.5,0.6,4.8,0.6c3.3,0,5.6-0.2,6.9-0.6s1.9-1.2,1.9-2.2c0-0.5-0.1-0.8-0.4-1.1
		C194.1,31.8,193.6,31.2,193.5,30.9z"/>
	<path d="M237.4,24.3c-0.9,0-1.4,0.5-1.7,1.6c-0.4,1.7-1.2,3-2.2,3.8c-1.1,0.8-2.5,1.2-4.4,1.2c-1.7,0-2.9-0.4-3.4-1.3
		c-0.4-0.7-0.7-2.4-0.7-4.9V13.5c0-2.2,0.1-3.7,0.2-4.4s0.6-1.1,1.2-1.4c1-0.4,1.7-0.8,2-1.1c0.3-0.3,0.4-0.7,0.4-1.2
		c0-1.3-1-2.2-3-2.6c-1.6-0.3-3.9-0.5-7.1-0.5c-2.8,0-5.1,0.3-6.7,0.8c-2,0.6-3,1.5-3,2.7c0,0.5,0.3,1,0.8,1.4
		c0.3,0.2,1,0.5,2.1,0.9c0.7,0.2,1.1,0.6,1.3,1s0.3,1.4,0.3,2.7c0,1.4,0.1,3.4,0.1,6.1c0.1,2.8,0.1,5,0.1,6.5c0,3.2-0.1,5.2-0.3,5.8
		c-0.3,0.8-0.9,1.4-1.8,1.9c-0.8,0.4-1.4,0.7-1.6,0.9c-0.2,0.2-0.3,0.6-0.3,1c0,0.7,0.3,1.3,1,1.7c0.5,0.3,1.2,0.4,2.4,0.4h17.1
		l5.4,0.7c0.5,0,0.9-0.1,1.3-0.4c0.4-0.3,0.8-0.8,1.2-1.5c1.5-2.3,2.2-4.5,2.2-6.5c0-1.2-0.3-2.2-0.8-3S238.3,24.3,237.4,24.3z"/>
	<path d="M271.8,30.9c-0.9-0.5-1.4-1-1.4-1.5V18.6c0-1.1,0-2.1,0.1-2.9c0-0.6,0-0.9,0-1.1c0-1.7-0.8-2.6-2.5-2.6c-3,0-5.9,0.4-9,1.1
		c-1.6,0.4-2.4,1.1-2.4,2.1c0,0.8,0.5,1.4,1.4,1.9c0.5,0.2,0.8,0.5,0.9,0.6s0.3,0.5,0.3,0.9c0.2,1,0.3,2.8,0.3,5.5
		c0,2.7-0.2,4.4-0.5,5.2c-0.2,0.4-0.5,0.7-1,1c-0.5,0.3-0.9,0.4-1.4,0.4c-1.9,0-2.8-1.4-2.8-4.3V13.2c0-0.8-0.5-1.2-1.4-1.2
		c-3.2,0-6.4,0.4-9.6,1.1c-1.9,0.4-2.8,1.2-2.8,2.5c0,0.3,0.1,0.6,0.3,0.8c0.2,0.2,0.6,0.5,1.2,0.8c0.7,0.4,1.1,0.9,1.4,1.6
		c0.3,0.7,0.4,1.7,0.4,3.1c0,0.2,0,0.6,0,1.1c0,0.9,0,2.1,0,3.4c0,3.6,0.5,6.1,1.6,7.7c1.3,1.8,3.5,2.7,6.6,2.7
		c1.9,0,3.7-0.6,5.3-1.7c0.8-0.6,1.3-0.9,1.5-1s0.3-0.1,0.5-0.1c0.5,0,0.8,0.5,0.9,1.5c0,0.5,0.2,0.9,0.5,1.1s0.8,0.3,1.6,0.3
		c1.9,0,3.9-0.2,5.9-0.7c3.5-0.8,5.2-1.9,5.2-3.4C273,31.8,272.6,31.3,271.8,30.9z"/>
	<path d="M299.3,31.1c-1.1-0.6-2.6-1-4.5-1c-1.3,0-3.2,0.2-5.9,0.6c-1.3,0.2-2.2,0.3-2.9,0.3c-1,0-1.7-0.2-2.3-0.5
		c-0.6-0.3-0.8-0.8-0.8-1.3c0-0.9,0.4-1.3,1.3-1.3c0.2,0,0.6,0,1,0.1c0.5,0.1,1.1,0.1,1.6,0.1c2.2,0,4.2-0.3,6.1-1
		c1.8-0.7,3.4-1.6,4.5-2.7c1.3-1.3,2-2.9,2-4.9c0-0.3,0-0.6-0.1-0.9c0-0.3,0-0.5,0-0.6c0-0.2,0.2-0.5,0.6-0.8c0.6-0.5,1.1-1.2,1.5-2
		c0.4-0.8,0.6-1.6,0.6-2.3c0-0.6-0.2-1.2-0.5-1.6s-0.7-0.7-1.1-0.7c-0.2,0-0.5,0.1-0.9,0.4c-1.8,1.4-3.5,2.1-5.3,2.1
		c-0.6,0-1.6-0.1-3.1-0.4c-1.6-0.3-3-0.5-4.3-0.5c-3.2,0-6.1,0.9-8.7,2.6c-1.1,0.7-1.9,1.5-2.5,2.5s-0.9,2-0.9,3.1
		c0,2.1,0.8,3.9,2.5,5.4c0.5,0.5,0.7,0.8,0.7,1c0,0.2-0.2,0.4-0.6,0.6c-0.9,0.5-1.7,1.1-2.3,1.9c-0.6,0.8-0.9,1.6-0.9,2.4
		c0,1.2,0.7,2.3,2,3.4c0.4,0.3,0.6,0.6,0.6,0.8c0,0.2-0.2,0.4-0.7,0.6c-0.5,0.2-1,0.6-1.3,1.1c-0.4,0.5-0.5,1.1-0.5,1.8
		c0,0.9,0.3,1.8,0.9,2.6c0.6,0.8,1.5,1.5,2.5,2.1c2.2,1.1,5.2,1.7,8.8,1.7c2.9,0,5.4-0.3,7.6-1c2.8-0.9,4.9-2.2,6.3-4.1
		c1.2-1.5,1.8-3.1,1.8-4.8c0-1-0.2-2-0.7-2.8S300.2,31.6,299.3,31.1z M285.2,16.5c0.5-0.6,1.2-0.9,2-0.9c1,0,1.7,0.5,2.2,1.5
		s0.8,2.3,0.8,4.1c0,1.1-0.3,2-0.8,2.7c-0.5,0.7-1.2,1-2.1,1c-0.9,0-1.6-0.5-2.1-1.6c-0.5-1.1-0.8-2.5-0.8-4.2
		C284.4,17.9,284.7,17.1,285.2,16.5z M290.6,41.1c-0.9,0.4-2.2,0.6-3.8,0.6c-1.7,0-3-0.3-4.1-0.9s-1.6-1.4-1.6-2.3
		c0-0.5,0.2-0.7,0.6-0.7c0.1,0,0.2,0,0.4,0c0.4,0.1,0.8,0.1,1.4,0.2c0.8,0.1,1.6,0.1,2.4,0.1c1.1,0,2.1-0.1,3.1-0.2
		c0.5-0.1,0.9-0.1,1.1-0.1c0.5,0,0.9,0.1,1.3,0.4c0.3,0.3,0.5,0.6,0.5,1C291.9,40.1,291.5,40.7,290.6,41.1z"/>
	<path d="M330.2,18.5c-1-1.8-2.3-3.2-3.9-4.3c-2.2-1.5-4.9-2.3-7.8-2.3c-4.3,0-7.9,1.3-10.9,3.9c-2.9,2.4-4.3,5.6-4.3,9.4
		c0,3.5,1.2,6.3,3.5,8.4c2.4,2.2,5.6,3.3,9.5,3.3c4,0,7.5-1.2,10.6-3.5c3.2-2.5,4.9-5.5,4.9-9C331.7,22.3,331.2,20.3,330.2,18.5z
		 M318.5,30.8c-1.1,0-2-0.7-2.5-2c-0.5-1.3-0.9-2.8-1.3-4.5s-0.5-3-0.5-4c0-0.9,0.2-1.6,0.6-2.1c0.4-0.5,1-0.8,1.7-0.8
		c1,0,1.7,0.6,2.2,1.7c0.5,1.1,1,2.5,1.3,4.3c0.4,1.7,0.6,3.3,0.6,4.7C320.7,29.9,319.9,30.8,318.5,30.8z"/>
	<path d="M162.2,40.7l-9.7-1.6c-1.6-0.3-3.2,0.8-3.4,2.5c-0.3,1.6,0.8,3.2,2.5,3.4l1.9,0.3c-1.9,5.6-9.6,9.9-18.5,9.9
		c-8.9,0-16.7-4.4-18.5-10l1.1-0.2c1.6-0.3,2.7-1.9,2.4-3.5c-0.3-1.6-1.9-2.7-3.5-2.4l-8.2,1.6c-1.6,0.3-2.7,1.9-2.4,3.5
		c0.3,1.4,1.5,2.4,2.9,2.4c0.2,0,0.4,0,0.6-0.1l1.1-0.2c2.3,8.5,12.4,14.9,24.4,14.9c12.1,0,22.2-6.4,24.4-14.9l1.8,0.3
		c0.2,0,0.3,0,0.5,0c1.4,0,2.7-1,3-2.5C164.9,42.5,163.8,40.9,162.2,40.7z"/>
</g>
</svg>
