<?xml version="1.0" encoding="utf-8"?>
<!-- Generator: Adobe Illustrator 26.4.1, SVG Export Plug-In . SVG Version: 6.00 Build 0)  -->
<svg version="1.1" id="Layer_1" xmlns="http://www.w3.org/2000/svg" xmlns:xlink="http://www.w3.org/1999/xlink" x="0px" y="0px"
	 viewBox="0 0 960 600" style="enable-background:new 0 0 960 600;" xml:space="preserve">
<style type="text/css">
	.st0{fill:#FFFFFF;}
	.st1{fill:#B3B3B3;}
	.st2{fill:#787878;}
	.st3{fill:#FAFAFA;}
	.st4{fill:#FFF5DB;}
	.st5{fill:#546111;}
	.st6{fill:#F27F49;}
	.st7{fill:#D62448;}
	.st8{fill:#DEC49E;}
	.st9{fill:#99573A;}
</style>
<g>
	<g>
		<g>
			<path d="M216.5,228.4c6.5,2.8,12.1,6.6,17,11.4c4.8,4.8,8.7,10.5,11.5,16.9c2.8,6.4,4.2,13.4,4.2,20.7c0,4.9-0.6,9.7-1.9,14.2
				c-1.3,4.6-3.1,8.8-5.4,12.7c-2.3,3.9-5.1,7.5-8.4,10.8c-3.3,3.3-6.9,6.1-10.8,8.4c-3.9,2.3-8.2,4.1-12.7,5.4
				c-4.6,1.3-9.3,1.9-14.2,1.9c-4.9,0-9.7-0.6-14.2-1.9c-4.6-1.3-8.8-3.1-12.7-5.4c-3.9-2.3-7.5-5.1-10.7-8.4
				c-3.2-3.3-6-6.9-8.3-10.8c-2.3-3.9-4.1-8.2-5.3-12.7c-1.3-4.6-1.9-9.3-1.9-14.2c0-4.9,0.6-9.6,1.9-14.2c1.3-4.5,3-8.8,5.3-12.7
				c2.3-3.9,5.1-7.5,8.3-10.8c3.2-3.2,6.8-6,10.7-8.4c3.9-2.3,8.2-4.1,12.7-5.4c4.6-1.3,9.3-1.9,14.2-1.9
				C203.1,224.2,210,225.6,216.5,228.4z M178.9,238c-5.2,2.2-9.7,5.3-13.6,9.2c-3.9,3.9-6.9,8.4-9.1,13.6
				c-2.2,5.2-3.4,10.8-3.4,16.7c0,6,1.1,11.6,3.4,16.8c2.2,5.2,5.3,9.8,9.1,13.6c3.9,3.9,8.4,6.9,13.6,9.2
				c5.2,2.2,10.8,3.4,16.8,3.4c6,0,11.5-1.1,16.8-3.4c5.2-2.2,9.8-5.3,13.6-9.2c3.9-3.9,6.9-8.4,9.2-13.6c2.2-5.2,3.4-10.8,3.4-16.8
				c0-6-1.1-11.5-3.4-16.7c-2.2-5.2-5.3-9.7-9.2-13.6c-3.9-3.9-8.4-6.9-13.6-9.2c-5.2-2.2-10.8-3.4-16.8-3.4
				C189.8,234.7,184.2,235.8,178.9,238z"/>
		</g>
		<g>
			<path d="M324.2,324.8c0,1.5-0.5,2.7-1.5,3.7c-1,1-2.2,1.5-3.7,1.5c-1.4,0-2.6-0.5-3.6-1.5c-1-1-1.5-2.2-1.5-3.7v-34.2v-0.4
				c-0.1-8.7-2.1-15.4-5.9-20.1c-3.8-4.7-9.1-7-15.9-7c-3.3,0-6.5,0.7-9.4,2c-2.9,1.3-5.5,3.1-7.7,5.4c-2.2,2.3-4,5.1-5.3,8.2
				c-1.3,3.2-2,6.6-2.1,10.2v35.7c0,1.5-0.5,2.7-1.5,3.7c-1,1-2.2,1.5-3.6,1.5c-1.4,0-2.6-0.5-3.6-1.5c-1-1-1.5-2.3-1.5-3.7v-66.8
				c0-1.4,0.5-2.6,1.6-3.6c1-1,2.3-1.5,3.7-1.5c1.4,0,2.6,0.5,3.6,1.5c1,1,1.5,2.2,1.5,3.6v8.8c3.2-4.1,7-7.5,11.4-10
				c4.4-2.5,9.1-3.8,14.1-3.8c4.7,0,8.9,0.9,12.7,2.6c3.8,1.7,7,4.2,9.7,7.5c2.7,3.2,4.8,7.2,6.2,11.8c1.4,4.6,2.2,9.8,2.3,15.4v0.4
				V324.8z"/>
		</g>
		<g>
			<path d="M346.8,324.8c0,1.4-0.5,2.6-1.5,3.6c-1,1-2.2,1.5-3.6,1.5c-1.4,0-2.6-0.5-3.6-1.5c-1-1-1.5-2.2-1.5-3.6v-94.7
				c0-1.5,0.5-2.7,1.5-3.6c1-1,2.2-1.4,3.6-1.4c1.4,0,2.6,0.5,3.6,1.4c1,1,1.5,2.2,1.5,3.6V324.8z"/>
		</g>
		<g>
			<path d="M388,312.6l24.9-56.8c0.6-1.3,1.6-2.3,2.9-2.8c1.3-0.6,2.6-0.6,3.9,0c1.4,0.6,2.3,1.6,2.8,2.9c0.5,1.3,0.4,2.7-0.2,4.1
				L392.5,327l-0.2,0.7l-12.2,27.5c-0.6,1.4-1.6,2.3-2.9,2.8c-1.3,0.5-2.7,0.5-4.1-0.1c-1.3-0.6-2.1-1.5-2.5-2.8
				c-0.3-1.3-0.2-2.6,0.4-4l11.4-26l-28.7-65c-0.6-1.4-0.6-2.7-0.1-4c0.5-1.3,1.4-2.3,2.7-2.9c1.3-0.6,2.6-0.6,3.9-0.1
				c1.3,0.5,2.3,1.5,2.9,2.9L388,312.6z"/>
		</g>
	</g>
	<g>
		<g>
			<path class="st0" d="M456.6,550.7L420.8,59.4c-0.4-6.1,4.1-11.4,10.2-11.8l117.4-8.5c6.1-0.4,11.4,4.1,11.8,10.2L596,540.6
				c0.4,6.1-4.1,11.4-10.2,11.8l-117.4,8.5C462.3,561.4,457,556.8,456.6,550.7z"/>
		</g>
	</g>
	<g>
		<g>
			<g>
				<polygon class="st1" points="548.5,51.3 558.3,32.5 550.7,52.3 				"/>
			</g>
		</g>
		<g>
			<g>
				<polygon class="st1" points="585.9,538.7 599.7,554.5 584.2,540.4 				"/>
			</g>
		</g>
		<g>
			<g>
				<polygon class="st1" points="468.8,548.7 455.8,565.5 466.8,547.3 				"/>
			</g>
		</g>
		<g>
			<g>
				<polygon class="st1" points="431.3,61.2 419.3,43 433.2,59.8 				"/>
			</g>
		</g>
	</g>
	<g>
		<g>
			<path class="st2" d="M549.2,39c5.7,0,10.6,4.4,11,10.2L596,540.6c0.4,6.1-4.1,11.4-10.2,11.8l-117.4,8.5c-0.3,0-0.5,0-0.8,0
				c-5.7,0-10.6-4.4-11-10.2L420.8,59.4c-0.4-6.1,4.1-11.4,10.2-11.8l117.4-8.5C548.7,39.1,549,39,549.2,39 M549.2,29.4L549.2,29.4
				c-0.5,0-1,0-1.5,0.1L430.3,38c-5.5,0.4-10.5,2.9-14.1,7.1c-3.6,4.2-5.4,9.5-5,15L447,551.4c0.8,10.7,9.8,19.1,20.6,19.1
				c0.5,0,1,0,1.5-0.1l117.4-8.5c5.5-0.4,10.5-2.9,14.1-7.1c3.6-4.2,5.4-9.5,5-15L569.8,48.6C569,37.9,560,29.4,549.2,29.4
				L549.2,29.4z"/>
		</g>
	</g>
	<g>
		<g>
			<g>
				<path class="st3" d="M470.2,549.1c-2,0-3.6-1.5-3.8-3.5L431.3,63.1c-0.2-2.1,1.4-3.9,3.5-4l112.1-8.2c0.1,0,0.2,0,0.3,0
					c2,0,3.6,1.5,3.8,3.5L586,536.9c0.2,2.1-1.4,3.9-3.5,4l-112.1,8.2C470.4,549.1,470.3,549.1,470.2,549.1z"/>
			</g>
		</g>
		<g>
			<g>
				<path class="st1" d="M547.1,52.1c1.3,0,2.5,1,2.6,2.4L584.8,537c0.1,1.4-1,2.7-2.4,2.8l-112.1,8.2c-0.1,0-0.1,0-0.2,0
					c-1.3,0-2.5-1-2.6-2.4L432.5,63c-0.1-1.4,1-2.7,2.4-2.8l112.1-8.2C547,52.1,547.1,52.1,547.1,52.1 M547.1,49.7
					c-0.1,0-0.2,0-0.4,0l-112.1,8.2c-1.3,0.1-2.5,0.7-3.4,1.7c-0.9,1-1.3,2.3-1.2,3.6l35.1,482.5c0.2,2.6,2.4,4.6,5,4.6
					c0.1,0,0.2,0,0.4,0l112.1-8.2c2.7-0.2,4.8-2.6,4.6-5.3L552.1,54.3C551.9,51.7,549.7,49.7,547.1,49.7L547.1,49.7z"/>
			</g>
		</g>
	</g>
	<g>
		<g>
			<g>
				<g>
					<g>
						<path class="st4" d="M506.1,529.5c-13.7,0-25.1-10.7-25.9-24.3l-2.1-32.7c-0.4-6.9,1.9-13.6,6.5-18.8
							c4.6-5.2,10.9-8.3,17.8-8.8l32.7-2.1c0.5,0,1.1-0.1,1.6-0.1c13.7,0,25.1,10.7,25.9,24.3l2.1,32.7c0.4,6.9-1.9,13.6-6.5,18.8
							c-4.6,5.2-10.9,8.3-17.8,8.8l-32.7,2.1C507.2,529.5,506.6,529.5,506.1,529.5z"/>
					</g>
				</g>
				<g>
					<g>
						<path d="M536.8,444.4c12.7,0,23.5,10,24.3,22.8l2.1,32.7c0.8,13.4-9.4,25-22.8,25.9l-32.7,2.1c-0.5,0-1,0-1.5,0
							c-12.7,0-23.5-10-24.3-22.8l-2.1-32.7c-0.8-13.4,9.4-25,22.8-25.9l32.7-2.1C535.7,444.4,536.3,444.4,536.8,444.4 M536.8,441.2
							L536.8,441.2c-0.6,0-1.2,0-1.7,0.1l-32.7,2.1c-7.3,0.5-14,3.8-18.9,9.3c-4.9,5.5-7.3,12.6-6.9,19.9l2.1,32.7
							c0.9,14.5,13,25.8,27.5,25.8c0.6,0,1.2,0,1.7-0.1l32.7-2.1c7.3-0.5,14-3.8,18.9-9.3c4.9-5.5,7.3-12.6,6.9-19.9l-2.1-32.7
							C563.4,452.5,551.3,441.2,536.8,441.2L536.8,441.2z"/>
					</g>
				</g>
			</g>
			<g>
				<g>
					<g>
						<path class="st5" d="M539.5,508.9l-33,2.2c-4.1,0.3-7.6-2.8-7.8-6.9l-2.2-33c-0.3-4.1,2.8-7.6,6.9-7.8l33-2.2
							c4.1-0.3,7.6,2.8,7.8,6.9l2.2,33C546.6,505.1,543.5,508.6,539.5,508.9z"/>
					</g>
				</g>
				<g>
					<g>
						<path class="st6" d="M524.7,509.9l-18,1.2c-4.2,0.3-7.7-2.9-8-7l-0.5-8.4c-0.3-4.2,2.9-7.7,7-8l18-1.2c4.2-0.3,7.7,2.9,8,7
							l0.5,8.4C532.1,506.1,528.9,509.7,524.7,509.9z"/>
					</g>
				</g>
				<g>
					<g>
						<path class="st7" d="M539.3,509l-8.3,0.5c-4.2,0.3-7.7-2.9-8-7l-1.3-20c-0.3-4.2,2.9-7.7,7-8l8.3-0.5c4.2-0.3,7.7,2.9,8,7
							l1.3,20C546.6,505.1,543.4,508.7,539.3,509z"/>
					</g>
				</g>
				<g>
					<g>
						<path class="st7" d="M540.2,488.8l-12.8,0.8c-2.9,0.2-5.4-2-5.6-4.9l-0.6-9c-0.5-7.4,5.1-13.8,12.5-14.3l4.7-0.3
							c2.9-0.2,5.4,2,5.6,4.9l1.1,17.1C545.3,486.1,543.1,488.6,540.2,488.8z"/>
					</g>
				</g>
				<g>
					<g>
						<path class="st6" d="M535.1,509.3l-25.9,1.7l-1.5-23.5l13.8-0.9c6.7-0.4,12.5,4.6,12.9,11.3L535.1,509.3z"/>
					</g>
				</g>
			</g>
		</g>
		<g>
			<g>
				<g>
					<g>
						<path class="st4" d="M497.4,405.4c-13.7,0-25.1-10.7-25.9-24.3l-2.1-32.7c-0.4-6.9,1.9-13.6,6.5-18.8
							c4.6-5.2,10.9-8.3,17.8-8.8l32.7-2.1c0.5,0,1.1-0.1,1.6-0.1c13.7,0,25.1,10.7,25.9,24.3l2.1,32.7c0.4,6.9-1.9,13.6-6.5,18.8
							c-4.6,5.2-10.9,8.3-17.8,8.8l-32.7,2.1C498.5,405.4,498,405.4,497.4,405.4z"/>
					</g>
				</g>
				<g>
					<g>
						<path d="M528.1,320.3c12.7,0,23.5,10,24.3,22.8l2.1,32.7c0.8,13.4-9.4,25-22.8,25.9l-32.7,2.1c-0.5,0-1,0-1.5,0
							c-12.7,0-23.5-10-24.3-22.8l-2.1-32.7c-0.8-13.4,9.4-25,22.8-25.9l32.7-2.1C527.1,320.3,527.6,320.3,528.1,320.3 M528.1,317.1
							L528.1,317.1c-0.6,0-1.2,0-1.7,0.1l-32.7,2.1c-7.3,0.5-14,3.8-18.9,9.3c-4.9,5.5-7.3,12.6-6.9,19.9l2.1,32.7
							c0.9,14.5,13,25.8,27.5,25.8c0.6,0,1.2,0,1.7-0.1l32.7-2.1c7.3-0.5,14-3.8,18.9-9.3c4.9-5.5,7.3-12.6,6.9-19.9l-2.1-32.7
							C554.7,328.4,542.6,317.1,528.1,317.1L528.1,317.1z"/>
					</g>
				</g>
			</g>
			<g>
				<g>
					<g>
						<path class="st5" d="M530.8,384.8l-33,2.2c-4.1,0.3-7.6-2.8-7.8-6.9l-2.2-33c-0.3-4.1,2.8-7.6,6.9-7.8l33-2.2
							c4.1-0.3,7.6,2.8,7.8,6.9l2.2,33C537.9,381,534.8,384.5,530.8,384.8z"/>
					</g>
				</g>
				<g>
					<g>
						<path class="st6" d="M516.1,385.8l-18,1.2c-4.2,0.3-7.7-2.9-8-7l-0.5-8.4c-0.3-4.2,2.9-7.7,7-8l18-1.2c4.2-0.3,7.7,2.9,8,7
							l0.5,8.4C523.4,382,520.2,385.6,516.1,385.8z"/>
					</g>
				</g>
				<g>
					<g>
						<path class="st7" d="M530.6,384.9l-8.3,0.5c-4.2,0.3-7.7-2.9-8-7l-1.3-20c-0.3-4.2,2.9-7.7,7-8l8.3-0.5c4.2-0.3,7.7,2.9,8,7
							l1.3,20C537.9,381,534.8,384.6,530.6,384.9z"/>
					</g>
				</g>
				<g>
					<g>
						<path class="st7" d="M531.5,364.7l-12.8,0.8c-2.9,0.2-5.4-2-5.6-4.9l-0.6-9c-0.5-7.4,5.1-13.8,12.5-14.3l4.7-0.3
							c2.9-0.2,5.4,2,5.6,4.9l1.1,17.1C536.7,362,534.5,364.5,531.5,364.7z"/>
					</g>
				</g>
				<g>
					<g>
						<path class="st6" d="M526.5,385.2l-25.9,1.7l-1.5-23.5l13.8-0.9c6.7-0.4,12.5,4.6,12.9,11.3L526.5,385.2z"/>
					</g>
				</g>
			</g>
		</g>
		<g>
			<g>
				<g>
					<g>
						<path class="st4" d="M488.7,281.3c-13.7,0-25.1-10.7-25.9-24.3l-2.1-32.7c-0.4-6.9,1.9-13.6,6.5-18.8
							c4.6-5.2,10.9-8.3,17.8-8.8l32.7-2.1c0.5,0,1.1-0.1,1.6-0.1c13.7,0,25.1,10.7,25.9,24.3l2.1,32.7c0.4,6.9-1.9,13.6-6.5,18.8
							c-4.6,5.2-10.9,8.3-17.8,8.8l-32.7,2.1C489.8,281.3,489.3,281.3,488.7,281.3z"/>
					</g>
				</g>
				<g>
					<g>
						<path d="M519.4,196.2c12.7,0,23.5,10,24.3,22.8l2.1,32.7c0.8,13.4-9.4,25-22.8,25.9l-32.7,2.1c-0.5,0-1,0-1.5,0
							c-12.7,0-23.5-10-24.3-22.8l-2.1-32.7c-0.8-13.4,9.4-25,22.8-25.9l32.7-2.1C518.4,196.2,518.9,196.2,519.4,196.2 M519.4,193
							L519.4,193c-0.6,0-1.2,0-1.7,0.1l-32.7,2.1c-15.2,1-26.7,14.1-25.8,29.3l2.1,32.7c0.9,14.5,13,25.8,27.5,25.8
							c0.6,0,1.2,0,1.7-0.1l32.7-2.1c15.2-1,26.7-14.1,25.8-29.3l-2.1-32.7C546,204.3,533.9,193,519.4,193L519.4,193z"/>
					</g>
				</g>
			</g>
			<g>
				<g>
					<g>
						<path class="st5" d="M522.1,260.6l-33,2.2c-4.1,0.3-7.6-2.8-7.8-6.9l-2.2-33c-0.3-4.1,2.8-7.6,6.9-7.8l33-2.2
							c4.1-0.3,7.6,2.8,7.8,6.9l2.2,33C529.2,256.9,526.2,260.4,522.1,260.6z"/>
					</g>
				</g>
				<g>
					<g>
						<path class="st6" d="M507.4,261.7l-18,1.2c-4.2,0.3-7.7-2.9-8-7l-0.5-8.4c-0.3-4.2,2.9-7.7,7-8l18-1.2c4.2-0.3,7.7,2.9,8,7
							l0.5,8.4C514.7,257.9,511.6,261.4,507.4,261.7z"/>
					</g>
				</g>
				<g>
					<g>
						<path class="st7" d="M521.9,260.8l-8.3,0.5c-4.2,0.3-7.7-2.9-8-7l-1.3-20c-0.3-4.2,2.9-7.7,7-8l8.3-0.5c4.2-0.3,7.7,2.9,8,7
							l1.3,20C529.2,256.9,526.1,260.5,521.9,260.8z"/>
					</g>
				</g>
				<g>
					<g>
						<path class="st7" d="M522.9,240.5l-12.8,0.8c-2.9,0.2-5.4-2-5.6-4.9l-0.6-9c-0.5-7.4,5.1-13.8,12.5-14.3l4.7-0.3
							c2.9-0.2,5.4,2,5.6,4.9l1.1,17.1C528,237.8,525.8,240.4,522.9,240.5z"/>
					</g>
				</g>
				<g>
					<g>
						<path class="st6" d="M517.8,261l-25.9,1.7l-1.5-23.5l13.8-0.9c6.7-0.4,12.5,4.6,12.9,11.3L517.8,261z"/>
					</g>
				</g>
			</g>
		</g>
		<g>
			<g>
				<g>
					<g>
						<path class="st4" d="M480.1,157.2c-13.7,0-25.1-10.7-25.9-24.3l-2.1-32.7c-0.4-6.9,1.9-13.6,6.5-18.8
							c4.6-5.2,10.9-8.3,17.8-8.8l32.7-2.1c0.5,0,1.1-0.1,1.6-0.1c13.7,0,25.1,10.7,25.9,24.3l2.1,32.7c0.4,6.9-1.9,13.6-6.5,18.8
							c-4.6,5.2-10.9,8.3-17.8,8.8l-32.7,2.1C481.1,157.2,480.6,157.2,480.1,157.2z"/>
					</g>
				</g>
				<g>
					<g>
						<path d="M510.7,72.1c12.7,0,23.5,10,24.3,22.8l2.1,32.7c0.8,13.4-9.4,25-22.8,25.9l-32.7,2.1c-0.5,0-1,0-1.5,0
							c-12.7,0-23.5-10-24.3-22.8l-2.1-32.7c-0.8-13.4,9.4-25,22.8-25.9l32.7-2.1C509.7,72.1,510.2,72.1,510.7,72.1 M510.7,68.9
							L510.7,68.9c-0.6,0-1.2,0-1.7,0.1L476.3,71c-15.2,1-26.7,14.1-25.8,29.3l2.1,32.7c0.9,14.5,13,25.8,27.5,25.8
							c0.6,0,1.2,0,1.7-0.1l32.7-2.1c7.3-0.5,14-3.8,18.9-9.3c4.9-5.5,7.3-12.6,6.9-19.9l-2.1-32.7
							C537.3,80.2,525.2,68.9,510.7,68.9L510.7,68.9z"/>
					</g>
				</g>
			</g>
			<g>
				<g>
					<g>
						<path class="st5" d="M513.4,136.5l-33,2.2c-4.1,0.3-7.6-2.8-7.8-6.9l-2.2-33c-0.3-4.1,2.8-7.6,6.9-7.8l33-2.2
							c4.1-0.3,7.6,2.8,7.8,6.9l2.2,33C520.6,132.8,517.5,136.3,513.4,136.5z"/>
					</g>
				</g>
				<g>
					<g>
						<path class="st6" d="M498.7,137.6l-18,1.2c-4.2,0.3-7.7-2.9-8-7l-0.5-8.4c-0.3-4.2,2.9-7.7,7-8l18-1.2c4.2-0.3,7.7,2.9,8,7
							l0.5,8.4C506,133.7,502.9,137.3,498.7,137.6z"/>
					</g>
				</g>
				<g>
					<g>
						<path class="st7" d="M513.3,136.6l-8.3,0.5c-4.2,0.3-7.7-2.9-8-7l-1.3-20c-0.3-4.2,2.9-7.7,7-8l8.3-0.5c4.2-0.3,7.7,2.9,8,7
							l1.3,20C520.6,132.8,517.4,136.4,513.3,136.6z"/>
					</g>
				</g>
				<g>
					<g>
						<path class="st7" d="M514.2,116.4l-12.8,0.8c-2.9,0.2-5.4-2-5.6-4.9l-0.6-9c-0.5-7.4,5.1-13.8,12.5-14.3l4.7-0.3
							c2.9-0.2,5.4,2,5.6,4.9l1.1,17.1C519.3,113.7,517.1,116.2,514.2,116.4z"/>
					</g>
				</g>
				<g>
					<g>
						<path class="st6" d="M509.1,136.9l-25.9,1.7l-1.5-23.5l13.8-0.9c6.7-0.4,12.5,4.6,12.9,11.3L509.1,136.9z"/>
					</g>
				</g>
			</g>
		</g>
	</g>
	<g>
		<g>
			<path class="st2" d="M646.3,289.9c0,15.5-12.5,28.1-28,28.1c-15.4,0-28.1-12.6-28.1-28.1s12.6-28.1,28.1-28.1
				C633.8,261.9,646.3,274.5,646.3,289.9z M634.6,289.9c0-9.1-7.2-16.2-16.3-16.2c-9,0-16.3,7.2-16.3,16.2c0,8.9,7.3,16.3,16.3,16.3
				C627.5,306.2,634.6,298.9,634.6,289.9z"/>
		</g>
		<g>
			<path class="st2" d="M707.4,289.9c0,15.5-12.5,28.1-28,28.1c-15.4,0-28.1-12.6-28.1-28.1s12.6-28.1,28.1-28.1
				C694.9,261.9,707.4,274.5,707.4,289.9z M695.7,289.9c0-9.1-7.2-16.2-16.3-16.2c-9,0-16.3,7.2-16.3,16.2c0,8.9,7.3,16.3,16.3,16.3
				C688.6,306.2,695.7,298.9,695.7,289.9z"/>
		</g>
		<g>
			<path class="st2" d="M756.8,267.1v-19.3c0-3.2,2.6-5.8,5.8-5.8c3.2,0,5.9,2.5,5.9,5.8v63.7c0,3.2-2.6,5.8-5.9,5.8
				c-2.9,0-5.2-2-5.8-4.7c-4.6,3.4-10.2,5.4-16.3,5.4c-15.4,0-28.1-12.6-28.1-28c0-15.5,12.6-28.1,28.1-28.1
				C746.6,261.9,752.2,263.8,756.8,267.1z M740.5,273.7c-9,0-16.3,7.2-16.3,16.2c0,8.9,7.3,16.2,16.3,16.2c8.9,0,15.9-6.9,16.3-15.5
				v-1.4C756.5,280.5,749.4,273.7,740.5,273.7z"/>
		</g>
		<g>
			<path class="st2" d="M797.6,307.6c4.3,0,8.5-2.2,8.5-5.9c0-4.5-5.6-6-9.5-7.2c-9.4-3.3-18.5-7.2-18.5-16.6
				c0-9.9,9.3-16.2,19.3-16.2c6.6,0,14.4,2.6,17.1,7.9c0.4,0.9,0.6,1.8,0.6,2.5c0,2.7-2.5,5-5.1,5c-0.6,0-1.3-0.1-1.9-0.4
				c-3.3-2.4-5.6-4.7-9.9-4.7c-4.8,0-8.4,1.8-8.4,5.5c0,3.8,4.2,5.4,10,7.2c9.3,2.9,17.6,6.5,17.6,16.5c0,9.4-8.4,16.6-19.8,16.6
				c-7.4,0-16.3-2.9-20.1-9.9c-0.6-1.2-0.9-2.2-0.9-3.2c0-3.1,2.5-5.2,5.4-5.2c1.8,0,3.7,0.8,5.3,2.8
				C789.9,306,792.8,307.6,797.6,307.6z"/>
		</g>
	</g>
	<g>
		<g>
			<polygon class="st8" points="760.3,72.8 468.5,179 476.6,179.4 747.4,91.4 			"/>
			<path class="st9" d="M476.6,180.2C476.6,180.2,476.6,180.2,476.6,180.2l-8.1-0.4c-0.4,0-0.7-0.3-0.8-0.7
				c-0.1-0.4,0.2-0.7,0.5-0.9L760,72.1c0.3-0.1,0.7,0,0.9,0.3c0.2,0.3,0.2,0.7,0,0.9l-12.9,18.6c-0.1,0.1-0.2,0.3-0.4,0.3
				l-270.8,87.9C476.8,180.2,476.7,180.2,476.6,180.2z M472.6,178.4l3.9,0.2l270.4-87.8l11.3-16.3L472.6,178.4z"/>
		</g>
	</g>
	<g>
		<g>
			<polygon class="st8" points="798.8,147.2 467.5,191.3 474.1,187.2 780.6,137.2 			"/>
			<path class="st9" d="M467.5,192.1c-0.3,0-0.6-0.2-0.8-0.5c-0.1-0.4,0-0.7,0.3-0.9l6.6-4.2c0.1-0.1,0.2-0.1,0.3-0.1l306.5-50
				c0.2,0,0.4,0,0.5,0.1l18.2,10.1c0.3,0.2,0.5,0.5,0.4,0.8c-0.1,0.3-0.3,0.6-0.7,0.6l-331.3,44.1
				C467.6,192.1,467.5,192.1,467.5,192.1z M474.4,187.9l-3.4,2.1l325.3-43.3l-15.9-8.8L474.4,187.9z"/>
		</g>
	</g>
</g>
</svg>
