<?xml version="1.0" encoding="utf-8"?>
<!-- Generator: Adobe Illustrator 26.4.1, SVG Export Plug-In . SVG Version: 6.00 Build 0)  -->
<svg version="1.1" id="Layer_1" xmlns="http://www.w3.org/2000/svg" xmlns:xlink="http://www.w3.org/1999/xlink" x="0px" y="0px"
	 viewBox="0 0 960 600" style="enable-background:new 0 0 960 600;" xml:space="preserve">
<style type="text/css">
	.st0{fill:#FFC54E;}
	.st1{fill:#BE696E;}
	.st2{fill:#98709F;}
	.st3{fill:#7ABDBD;}
	.st4{fill:#8DBD5B;}
</style>
<g>
	<g>
		<path d="M277.2,338.3h-15.8l4.3-24.1h-28.1l7.6-15.8h23.2l3.2-18.5c0.6-2.6-0.9-5.2-3.5-5.8c-0.4-0.1-0.9-0.2-1.4-0.1h-21.9
			c-3.4,0.1-6.3,2.6-7,5.9l-10.2,58.4h-15.7l10.3-58.7c2.4-12.1,12.8-20.9,25.2-21.4h22.6c11.7,0,19.6,9.6,17.6,21.4L277.2,338.3z"
			/>
		<path d="M291.5,274.1L291.5,274.1c-0.2-4-1.4-7.8-3.5-11.1c-1.3-1.9-2.8-3.5-4.7-4.8h-4.6c2.5,0.8,4.6,2.3,6.3,4.3
			c0.5,0.6,0.9,1.2,1.3,1.7c1.2,1.8,2,3.7,2.5,5.8c0,0.1,0,0.2,0,0.4c0,0.5,0.2,1.1,0.3,1.6c0,0.2,0,0.4,0,0.5
			c0.4,2.3,0.4,4.6,0,6.9l-10.1,58.9h2.2l10.1-58.6C291.5,277.8,291.6,276,291.5,274.1z"/>
		<path d="M252.3,275.8h-8.2c-2.5,0.3-4.4,2.2-4.6,4.7l-7.6,44.3l-2.3,13.5h2.2l2.3-13.5l7.5-43.9c0.5-2.8,2.5-2.9,2.5-2.9h20.5
			l1-2.2H252.3z"/>
		<path d="M792.8,338.3H777l4.2-24.1h-27.9l7.6-15.8H784l3.2-18.5c0.6-2.6-0.9-5.1-3.5-5.8c-0.5-0.1-0.9-0.2-1.4-0.1h-22
			c-3.4,0.1-6.3,2.6-7,5.9l-10.2,58.4h-15.7l10.3-58.7c2.4-12.1,12.8-20.9,25.2-21.4h22.5c11.8,0,19.6,9.6,17.6,21.4L792.8,338.3z"
			/>
		<path d="M807.2,274.1L807.2,274.1c-0.2-4-1.4-7.8-3.5-11.1c-1.3-1.9-2.8-3.5-4.7-4.8h-4.7c2.5,0.8,4.6,2.3,6.3,4.3
			c0.5,0.6,0.9,1.2,1.3,1.7c1.2,1.8,2.1,3.7,2.5,5.8c0,0.1,0,0.2,0,0.4c0.1,0.5,0.2,1.1,0.3,1.6c0,0.2,0,0.4,0,0.5
			c0.4,2.3,0.4,4.6,0,6.9l-10.1,58.9h2.2l10.1-58.6C807.2,277.8,807.3,276,807.2,274.1z"/>
		<path d="M767.8,275.8h-8.2c-2.5,0.3-4.4,2.2-4.6,4.7l-7.6,44.3l-2.3,13.5h2.2l2.3-13.5l7.5-43.9c0.5-2.8,2.5-2.9,2.5-2.9h20.5
			l1-2.2H767.8z"/>
		<polygon points="382.4,258.2 368.3,338.3 352.6,338.3 366.8,258.2 		"/>
		<polygon points="399,298.3 422.2,338.3 402.5,338.3 379.3,298.3 416.6,258.2 436.3,258.2 		"/>
		<polygon points="442.2,258.2 439.2,258.2 401.6,298.6 425.4,338.3 427.9,338.3 404.3,298.8 		"/>
		<polygon points="384.4,258.2 370.3,338.3 372.5,338.3 386.6,258.2 		"/>
		<path d="M184.2,338.3l-9.7-24.1h-13.9l7.6-15.8h17c3.5-0.1,6.4-2.5,7.1-5.9l2.2-12.6c0.6-2.6-0.9-5.1-3.5-5.8
			c-0.5-0.1-0.9-0.2-1.4-0.1h-28l-11.3,64.3h-15.7l14.1-80.1h43.9c11.6,0,19.4,9.4,17.6,21v0.4l-2.4,13.3v0.3
			c-1.9,8.6-7.9,15.7-16,19.1l10.6,25.9L184.2,338.3z M207.8,293.2 M210.2,279.5"/>
		<path d="M212.2,293.3c0-0.1,0-0.2,0-0.3l2.3-13.5v-0.2c0.7-5.7-0.8-11.5-4.3-16.1c-1.4-1.9-3.1-3.6-5-5.1h-3.8
			c2.8,1.6,5.2,3.8,7.2,6.3c3.1,4.2,4.5,9.4,3.8,14.6v0.2l-2.3,13.4c0,0.1,0,0.2,0,0.3c-1.8,8.6-7.5,15.9-15.4,19.8
			c-0.3,0.1-0.5,0.3-0.6,0.6c-0.1,0.3-0.1,0.6,0,0.8l10.4,24h2.4l-10.3-23.9C204.7,310,210.4,302.3,212.2,293.3z"/>
		<path d="M177.2,275.5h-13.4c-0.5,0-1,0.4-1.1,0.9l-6.5,37.5l-4.1,24.4h2.2l4.1-24.4l6.1-36.2h21.9l1-2.2H177.2z"/>
		<path d="M853.7,338.3l-9.7-24.1H830l7.6-15.8h17c3.4-0.1,6.3-2.6,7-5.9l2.2-12.6c0.6-2.6-0.9-5.1-3.5-5.8
			c-0.5-0.1-0.9-0.2-1.4-0.1H831l-11.3,64.3H804l14.1-80.1h43.9c11.6,0,19.4,9.4,17.5,21v0.4l-2.4,13.3v0.3
			c-1.9,8.6-7.9,15.7-16,19.1l10.6,25.9L853.7,338.3z M877.3,293.2 M879.6,279.5"/>
		<path d="M881.6,293.3c0-0.1,0-0.2,0-0.3l2.3-13.5v-0.2c0.7-5.7-0.8-11.5-4.3-16.1c-1.5-1.9-3.2-3.6-5.1-5.1h-3.8
			c2.8,1.6,5.2,3.8,7.2,6.3c3.1,4.2,4.5,9.4,3.8,14.6v0.2l-2.3,13.4c0,0.1,0,0.2,0,0.3c-1.8,8.6-7.5,15.9-15.4,19.8
			c-0.3,0.1-0.5,0.3-0.6,0.6c-0.1,0.3-0.1,0.6,0,0.8l10.4,24h2.4l-10.4-23.9C874,310,879.8,302.3,881.6,293.3z"/>
		<path d="M846.5,275.5h-13.4c-0.5,0-1,0.4-1.1,0.9l-6.4,37.5l-4.1,24.4h2.2l4.1-24.4l6.1-36.2h21.9l1-2.2H846.5z"/>
		<path d="M620,275.4c-2.7,0.1-5,2.1-5.6,4.7l-0.7,4.6c-0.2,1.1,0,2.2,0.7,3.1c0.7,0.8,1.7,1.2,2.8,1.2h22.3
			c5.7-0.1,11.2,2.3,14.9,6.6c3.7,4.6,5.2,10.6,4.1,16.4l-0.9,5.2c-2.5,12.7-13.4,22.1-26.4,22.5h-44.8l-1.4,2.2h46.2
			c14-0.5,25.8-10.6,28.5-24.3l0.9-5.2c1.3-6.4-0.4-13.1-4.6-18.2c-4.1-4.8-10.2-7.5-16.5-7.4h-22.3c-0.4,0-0.8-0.1-1.1-0.4
			c-0.3-0.4-0.4-0.9-0.3-1.3l0.7-4.6c0.4-1.6,1.8-2.8,3.5-2.9h31.2l1-2.2H620z"/>
		<path d="M622.6,258.2c-12.3,0.5-22.7,9.3-25.2,21.4l-0.9,5.2c-2,11.7,5.8,21.4,17.6,21.4h22.2c2.6-0.1,4.9,1.9,5,4.6
			c0,0.5,0,0.9-0.1,1.4l-0.7,4.6c-0.7,3.4-3.6,5.8-7,5.9h-38.8l-7.5,15.7H631c12.3-0.5,22.7-9.3,25.1-21.4l0.9-5.2
			c2-11.7-5.8-21.4-17.6-21.4h-22.3c-2.7,0-4.9-2.1-4.9-4.7c0-0.4,0-0.8,0.1-1.2l0.7-4.5c0.7-3.4,3.6-5.8,7-5.9h33l7.6-15.8
			L622.6,258.2z"/>
		<path d="M137.6,274h-23l-11.3,64.3H87.6l9.9-56.5l9.3-7.8H75.9l2.8-15.8h61.7L137.6,274z"/>
		<path d="M117.4,275.5c-0.5,0-1,0.4-1.1,0.9l-1.3,7.3l-9.9,54.4l2.2,0.4l10-54.8l1.1-6H137l0.4-2.2H117.4z"/>
		<path d="M730.5,274h-23.1l-11.3,64.3h-15.7l9.8-56.5l9.3-7.8h-30.9l2.8-15.8h61.7L730.5,274z"/>
		<path d="M710.2,275.5c-0.5,0-1,0.4-1.1,0.9l-1.3,7.3l-9.9,54.4l2.2,0.4l10-54.8l1.1-6h18.7l0.4-2.2H710.2z"/>
		<path d="M345.9,322.6l-2.7,15.7h-33.3c-9.7,0.3-17.8-7.3-18.1-17c0-1.5,0.1-2.9,0.4-4.3l6.6-37.4c2.4-12.1,12.8-20.9,25.1-21.4
			h33.4l-7.5,15.8h-28.5c-3.4,0.1-6.3,2.6-7,5.9l-6.5,36.8c-0.6,2.6,1.1,5.2,3.7,5.8c0.4,0.1,0.8,0.1,1.2,0.1H345.9z"/>
		<path d="M323.4,276.2c-3.5-0.2-6.6,2.1-7.3,5.5l-0.7,3.9l-5,28.9c-0.3,1.8,0.2,3.6,1.4,4.9l0,0l0.7-4.2c0-0.1,0-0.2,0-0.3l0.5-3
			l0,0l4.6-26.3l0.6-3.5c0.6-2.3,2.8-3.9,5.2-3.7h24.3l1-2.2L323.4,276.2z"/>
	</g>
	<g>
		<path d="M513,265L513,265l14.4-14.1l2.5,19.6c2.1-0.5,4-1.5,5.7-2.8c4.1-3.3,6.5-7.7,5.6-13c-1.2-7.8-7.9-13.1-15.7-13
			c-2.4,0-4.8,0.6-7,1.7c-8,3.7-10.9,13-6.4,20.2C512.3,264.1,512.6,264.6,513,265z"/>
		<path d="M465.2,299.9c6.3-9.3,14.3-17.4,21-26.8c1.6,1,3.1,1.9,4.6,2.7c4.1,2.2,8.3,3.9,12.8,4.5l-7.3-14.5
			c-1.9-0.4-3.8-0.7-5.7-1c-4.9-0.7-9.1,0.5-12.3,4.6c-0.7,0.9-1.5,1.8-2.2,2.8c-5.9,8.1-8.6,17.6-11.4,27.1
			C464.7,299.4,464.6,299.7,465.2,299.9z"/>
		<path d="M573.9,263.4c-7.5,7.9-16.3,14.4-24,22.2c-0.7-0.5-1.3-0.9-1.9-1.4c-1.1-0.9-2.3-1.8-3.5-2.6l-13.3,6.3
			c4.7,2.4,9.7,4,14.8,5.2c4.2,1.1,7.8-0.2,10.9-3.1c1.9-1.6,3.6-3.4,5.2-5.3c5.1-6.1,8.4-13.3,11.9-20.3c0.1-0.2,0.1-0.5,0.2-0.7
			L573.9,263.4z"/>
		<polygon class="st0" points="505.8,278.2 506.4,279.3 505.8,280.4 500.5,289.9 498.9,292.9 509.9,291.2 513,290.7 514.2,290.5 
			515,291.4 519,295.6 524.8,301.8 525.1,299.7 527.1,287.8 527.3,286.6 528.4,286 528.5,286 541.3,280 537.5,278 528.6,273.4 
			527.6,272.9 527.4,271.7 527.4,271.4 525.6,257.5 515.5,267.5 515.5,267.6 514.6,268.4 513.4,268.2 509,267.3 499.4,265.5 
			505.2,276.9 		"/>
		<path d="M534.2,309c-0.9-1.2-2-2.4-3.1-3.4c-1.3-1.1-2.5-2.1-3.8-3.1l-1,5.9l-13.8-14.7l-16,2.4c-0.7,1.9-0.8,3.9-0.4,5.9
			c-0.6,0.8-1.2,1.5-1.8,2.3c-12.8,17-25.6,33.9-38.3,50.9c-0.7,0.9-1.2,1.9-1.3,3.1c9.6-7.1,18.3-15.2,27.1-23.3s17.8-16,25.9-25
			c4.5,2.4,9.5,3.4,14.3,5.3c-4.8,5.9-9.1,11.8-13.2,17.9c-4.1,6.1-8.6,11.8-13.3,17.7c0.8,0,1.6-0.2,2.2-0.8c2.9-2,5.9-4,8.8-6.1
			c7.9-5.4,15.7-11,22.1-18.1c2.5-2.6,4.6-5.6,6.3-8.7C536.5,314.4,536.1,311.7,534.2,309z"/>
	</g>
</g>
<g>
	<g>
		<path d="M277.2,901.8h-15.8l4.3-24.1h-28.1l7.6-15.8h23.2l3.2-18.5c0.6-2.6-0.9-5.2-3.5-5.8c-0.4-0.1-0.9-0.2-1.4-0.1h-21.9
			c-3.4,0.1-6.3,2.6-7,5.9l-10.2,58.4h-15.7l10.3-58.7c2.4-12.1,12.8-20.9,25.2-21.4h22.6c11.7,0,19.6,9.6,17.6,21.4L277.2,901.8z"
			/>
		<path d="M291.5,837.6L291.5,837.6c-0.2-4-1.4-7.8-3.5-11.1c-1.3-1.9-2.8-3.5-4.7-4.8h-4.6c2.5,0.8,4.6,2.3,6.3,4.3
			c0.5,0.6,0.9,1.2,1.3,1.7c1.2,1.8,2,3.7,2.5,5.8c0,0.1,0,0.2,0,0.4c0,0.5,0.2,1.1,0.3,1.6c0,0.2,0,0.4,0,0.5
			c0.4,2.3,0.4,4.6,0,6.9l-10.1,58.9h2.2l10.1-58.6C291.5,841.3,291.6,839.4,291.5,837.6z"/>
		<path d="M252.3,839.3h-8.2c-2.5,0.3-4.4,2.2-4.6,4.7l-7.6,44.3l-2.3,13.5h2.2l2.3-13.5l7.5-43.9c0.5-2.8,2.5-2.9,2.5-2.9h20.5
			l1-2.2H252.3z"/>
		<path d="M792.8,901.8H777l4.2-24.1h-27.9l7.6-15.8H784l3.2-18.5c0.6-2.6-0.9-5.1-3.5-5.8c-0.5-0.1-0.9-0.2-1.4-0.1h-22
			c-3.4,0.1-6.3,2.6-7,5.9l-10.2,58.4h-15.7l10.3-58.7c2.4-12.1,12.8-20.9,25.2-21.4h22.5c11.8,0,19.6,9.6,17.6,21.4L792.8,901.8z"
			/>
		<path d="M807.2,837.6L807.2,837.6c-0.2-4-1.4-7.8-3.5-11.1c-1.3-1.9-2.8-3.5-4.7-4.8h-4.7c2.5,0.8,4.6,2.3,6.3,4.3
			c0.5,0.6,0.9,1.2,1.3,1.7c1.2,1.8,2.1,3.7,2.5,5.8c0,0.1,0,0.2,0,0.4c0.1,0.5,0.2,1.1,0.3,1.6c0,0.2,0,0.4,0,0.5
			c0.4,2.3,0.4,4.6,0,6.9l-10.1,58.9h2.2l10.1-58.6C807.2,841.3,807.3,839.4,807.2,837.6z"/>
		<path d="M767.8,839.3h-8.2c-2.5,0.3-4.4,2.2-4.6,4.7l-7.6,44.3l-2.3,13.5h2.2l2.3-13.5l7.5-43.9c0.5-2.8,2.5-2.9,2.5-2.9h20.5
			l1-2.2H767.8z"/>
		<polygon points="382.4,821.7 368.3,901.8 352.6,901.8 366.8,821.7 		"/>
		<polygon points="399,861.8 422.2,901.8 402.5,901.8 379.3,861.8 416.6,821.7 436.3,821.7 		"/>
		<polygon points="442.2,821.7 439.2,821.7 401.6,862 425.4,901.8 427.9,901.8 404.3,862.3 		"/>
		<polygon points="384.4,821.7 370.3,901.8 372.5,901.8 386.6,821.7 		"/>
		<path d="M184.2,901.8l-9.7-24.1h-13.9l7.6-15.8h17c3.5-0.1,6.4-2.5,7.1-5.9l2.2-12.6c0.6-2.6-0.9-5.1-3.5-5.8
			c-0.5-0.1-0.9-0.2-1.4-0.1h-28l-11.3,64.3h-15.7l14.1-80.1h43.9c11.6,0,19.4,9.4,17.6,21v0.4l-2.4,13.3v0.3
			c-1.9,8.6-7.9,15.7-16,19.1l10.6,25.9L184.2,901.8z M207.8,856.7 M210.2,843"/>
		<path d="M212.2,856.8c0-0.1,0-0.2,0-0.3l2.3-13.5v-0.2c0.7-5.7-0.8-11.5-4.3-16.1c-1.4-1.9-3.1-3.6-5-5.1h-3.8
			c2.8,1.6,5.2,3.8,7.2,6.3c3.1,4.2,4.5,9.4,3.8,14.6v0.2l-2.3,13.4c0,0.1,0,0.2,0,0.3c-1.8,8.6-7.5,15.9-15.4,19.8
			c-0.3,0.1-0.5,0.3-0.6,0.6c-0.1,0.3-0.1,0.6,0,0.8l10.4,24h2.4l-10.3-23.9C204.7,873.5,210.4,865.8,212.2,856.8z"/>
		<path d="M177.2,839h-13.4c-0.5,0-1,0.4-1.1,0.9l-6.5,37.5l-4.1,24.4h2.2l4.1-24.4l6.1-36.2h21.9l1-2.2H177.2z"/>
		<path d="M853.7,901.8l-9.7-24.1H830l7.6-15.8h17c3.4-0.1,6.3-2.6,7-5.9l2.2-12.6c0.6-2.6-0.9-5.1-3.5-5.8
			c-0.5-0.1-0.9-0.2-1.4-0.1H831l-11.3,64.3H804l14.1-80.1h43.9c11.6,0,19.4,9.4,17.5,21v0.4l-2.4,13.3v0.3
			c-1.9,8.6-7.9,15.7-16,19.1l10.6,25.9L853.7,901.8z M877.3,856.7 M879.6,843"/>
		<path d="M881.6,856.8c0-0.1,0-0.2,0-0.3l2.3-13.5v-0.2c0.7-5.7-0.8-11.5-4.3-16.1c-1.5-1.9-3.2-3.6-5.1-5.1h-3.8
			c2.8,1.6,5.2,3.8,7.2,6.3c3.1,4.2,4.5,9.4,3.8,14.6v0.2l-2.3,13.4c0,0.1,0,0.2,0,0.3c-1.8,8.6-7.5,15.9-15.4,19.8
			c-0.3,0.1-0.5,0.3-0.6,0.6c-0.1,0.3-0.1,0.6,0,0.8l10.4,24h2.4l-10.4-23.9C874,873.5,879.8,865.8,881.6,856.8z"/>
		<path d="M846.5,839h-13.4c-0.5,0-1,0.4-1.1,0.9l-6.4,37.5l-4.1,24.4h2.2l4.1-24.4l6.1-36.2h21.9l1-2.2H846.5z"/>
		<path d="M620,838.8c-2.7,0.1-5,2.1-5.6,4.7l-0.7,4.6c-0.2,1.1,0,2.2,0.7,3.1c0.7,0.8,1.7,1.2,2.8,1.2h22.3
			c5.7-0.1,11.2,2.3,14.9,6.6c3.7,4.6,5.2,10.6,4.1,16.4l-0.9,5.2c-2.5,12.7-13.4,22.1-26.4,22.5h-44.8l-1.4,2.2h46.2
			c14-0.5,25.8-10.6,28.5-24.3l0.9-5.2c1.3-6.4-0.4-13.1-4.6-18.2c-4.1-4.8-10.2-7.5-16.5-7.4h-22.3c-0.4,0-0.8-0.1-1.1-0.4
			c-0.3-0.4-0.4-0.9-0.3-1.3l0.7-4.6c0.4-1.6,1.8-2.8,3.5-2.9h31.2l1-2.2H620z"/>
		<path d="M622.6,821.7c-12.3,0.5-22.7,9.3-25.2,21.4l-0.9,5.2c-2,11.7,5.8,21.4,17.6,21.4h22.2c2.6-0.1,4.9,1.9,5,4.6
			c0,0.5,0,0.9-0.1,1.4l-0.7,4.6c-0.7,3.4-3.6,5.8-7,5.9h-38.8l-7.5,15.7H631c12.3-0.5,22.7-9.3,25.1-21.4l0.9-5.2
			c2-11.7-5.8-21.4-17.6-21.4h-22.3c-2.7,0-4.9-2.1-4.9-4.7c0-0.4,0-0.8,0.1-1.2l0.7-4.5c0.7-3.4,3.6-5.8,7-5.9h33l7.6-15.8H622.6z"
			/>
		<path d="M137.6,837.4h-23l-11.3,64.3H87.6l9.9-56.5l9.3-7.8H75.9l2.8-15.8h61.7L137.6,837.4z"/>
		<path d="M117.4,839c-0.5,0-1,0.4-1.1,0.9l-1.3,7.3l-9.9,54.4l2.2,0.4l10-54.8l1.1-6H137l0.4-2.2H117.4z"/>
		<path d="M730.5,837.4h-23.1l-11.3,64.3h-15.7l9.8-56.5l9.3-7.8h-30.9l2.8-15.8h61.7L730.5,837.4z"/>
		<path d="M710.2,839c-0.5,0-1,0.4-1.1,0.9l-1.3,7.3l-9.9,54.4l2.2,0.4l10-54.8l1.1-6h18.7l0.4-2.2H710.2z"/>
		<path d="M345.9,886.1l-2.7,15.7h-33.3c-9.7,0.3-17.8-7.3-18.1-17c0-1.5,0.1-2.9,0.4-4.3l6.6-37.4c2.4-12.1,12.8-20.9,25.1-21.4
			h33.4l-7.5,15.8h-28.5c-3.4,0.1-6.3,2.6-7,5.9l-6.5,36.8c-0.6,2.6,1.1,5.2,3.7,5.8c0.4,0.1,0.8,0.1,1.2,0.1H345.9z"/>
		<path d="M323.4,839.6c-3.5-0.2-6.6,2.1-7.3,5.5l-0.7,3.9l-5,28.9c-0.3,1.8,0.2,3.6,1.4,4.9l0,0l0.7-4.2c0-0.1,0-0.2,0-0.3l0.5-3
			l0,0l4.6-26.3l0.6-3.5c0.6-2.3,2.8-3.9,5.2-3.7h24.3l1-2.2L323.4,839.6z"/>
	</g>
	<g>
		<path class="st1" d="M513,828.5L513,828.5l14.4-14.1l2.5,19.6c2.1-0.5,4-1.5,5.7-2.8c4.1-3.3,6.5-7.7,5.6-13
			c-1.2-7.8-7.9-13.1-15.7-13c-2.4,0-4.8,0.6-7,1.7c-8,3.7-10.9,13-6.4,20.2C512.3,827.6,512.6,828.1,513,828.5z"/>
		<path class="st2" d="M465.2,863.3c6.3-9.3,14.3-17.4,21-26.8c1.6,1,3.1,1.9,4.6,2.7c4.1,2.2,8.3,3.9,12.8,4.5l-7.3-14.5
			c-1.9-0.4-3.8-0.7-5.7-1c-4.9-0.7-9.1,0.5-12.3,4.6c-0.7,0.9-1.5,1.8-2.2,2.8c-5.9,8.1-8.6,17.6-11.4,27.1
			C464.7,862.9,464.6,863.2,465.2,863.3z"/>
		<path class="st3" d="M573.9,826.8c-7.5,7.9-16.3,14.4-24,22.2c-0.7-0.5-1.3-0.9-1.9-1.4c-1.1-0.9-2.3-1.8-3.5-2.6l-13.3,6.3
			c4.7,2.4,9.7,4,14.8,5.2c4.2,1.1,7.8-0.2,10.9-3.1c1.9-1.6,3.6-3.4,5.2-5.3c5.1-6.1,8.4-13.3,11.9-20.3c0.1-0.2,0.1-0.5,0.2-0.7
			L573.9,826.8z"/>
		<polygon class="st0" points="505.8,841.7 506.4,842.8 505.8,843.9 500.5,853.4 498.9,856.3 509.9,854.7 513,854.2 514.2,854 
			515,854.9 519,859.1 524.8,865.3 525.1,863.2 527.1,851.2 527.3,850 528.4,849.5 528.5,849.5 541.3,843.5 537.5,841.5 
			528.6,836.9 527.6,836.4 527.4,835.1 527.4,834.9 525.6,821 515.5,831 515.5,831.1 514.6,831.9 513.4,831.7 509,830.8 499.4,829 
			505.2,840.4 		"/>
		<path class="st4" d="M534.2,872.5c-0.9-1.2-2-2.4-3.1-3.4c-1.3-1.1-2.5-2.1-3.8-3.1l-1,5.9l-13.8-14.7l-16,2.4
			c-0.7,1.9-0.8,3.9-0.4,5.9c-0.6,0.8-1.2,1.5-1.8,2.3c-12.8,17-25.6,33.9-38.3,50.9c-0.7,0.9-1.2,1.9-1.3,3.1
			c9.6-7.1,18.3-15.2,27.1-23.3s17.8-16,25.9-25c4.5,2.4,9.5,3.4,14.3,5.3c-4.8,5.9-9.1,11.8-13.2,17.9c-4.1,6.1-8.6,11.8-13.3,17.7
			c0.8,0,1.6-0.2,2.2-0.8c2.9-2,5.9-4,8.8-6.1c7.9-5.4,15.7-11,22.1-18.1c2.5-2.6,4.6-5.6,6.3-8.7
			C536.5,877.8,536.1,875.1,534.2,872.5z"/>
	</g>
</g>
</svg>
