<?xml version="1.0" encoding="utf-8"?>
<!-- Generator: Adobe Illustrator 26.4.1, SVG Export Plug-In . SVG Version: 6.00 Build 0)  -->
<svg version="1.1" id="Layer_1" xmlns="http://www.w3.org/2000/svg" xmlns:xlink="http://www.w3.org/1999/xlink" x="0px" y="0px"
	 viewBox="0 0 456.9 375.7" style="enable-background:new 0 0 456.9 375.7;" xml:space="preserve">
<style type="text/css">
	.st0{fill:#A969AB;}
	.st1{fill:url(#SVGID_1_);}
	.st2{fill:url(#SVGID_00000165929748898044561690000001284895288836076436_);}
	.st3{fill:url(#SVGID_00000114774719070911661390000009400626853060759174_);}
	.st4{fill:url(#SVGID_00000018916907065944412070000012511145797430804635_);}
</style>
<g>
	<path class="st0" d="M448.4,12.1c-1.9-1.7-3.8-1.6-6.1-0.6c-22.3,9.1-44.6,18.1-66.8,27.2c-24.4,10-48.7,20-73.1,30
		c-18.8,7.7-37.6,15.4-56.3,23.1c-21.1,8.7-42.1,17.4-63.1,26.1c-23.8,9.8-47.7,19.6-71.5,29.5c-21,8.7-41.9,17.4-62.8,26.1
		c-11.6,4.8-23.1,9.7-34.6,14.6c-2.1,0.9-3.3,2.2-3.2,4.6c-0.1,2.7,1.6,4,3.9,5c18.2,7.4,36.4,14.8,54.6,22.2
		c26.9,10.9,53.9,21.9,80.9,32.7c3,1.2,3.8,2.9,3.9,5.7c0.2,6.5,0.4,13,0.7,19.5c0.9,20.9,1.8,41.8,2.8,62.7
		c0.4,8.2,0.6,16.4,1.9,24.6c0.8,4.7,4.1,6.2,7.8,3.2c9.9-8.1,19.8-16.2,29.6-24.5c16.2-13.6,32.2-27.3,48.3-41
		c1.6-1.3,2.9-1.4,4.7-0.5c13.9,7.4,27.8,14.8,41.7,22.1c24,12.7,47.8,25.7,72,38.1c7.3,3.7,8.8,2.9,11-5.2
		c1.9-7.3,3.6-14.7,5.3-22.1c3.7-17.1,7.6-34.1,11.4-51.1c4.5-20.4,9.1-40.9,13.6-61.3c6.6-29.6,13.2-59.3,19.7-88.9
		c5.7-25.5,11.3-51,16.9-76.6c2.9-13.1,5.7-26.3,8.6-39.4C450.5,15.6,450.2,13.7,448.4,12.1z M160.4,242.3c-1.6,1.3-2.9,1.5-4.7,0.7
		c-27.7-11.2-55.5-22.2-83.2-33.5c-12.8-5.2-25.7-10.1-38.2-15.9c-0.8-0.4-1.8-0.5-2.5-1.7c126.5-52.1,253-104.2,379.5-156.3
		c0.1,0.2,0.2,0.4,0.3,0.6c-8.3,6.8-16.5,13.6-24.8,20.4c-24.2,19.9-48.5,39.8-72.7,59.7c-30.2,24.8-60.4,49.5-90.6,74.3
		C202.4,207.8,181.4,225,160.4,242.3z M169.3,341.6c-1.1-4.9-0.9-9.6-1.1-14.2c-0.8-13.5-1.3-27-1.9-40.5
		c-0.5-10.4-0.9-20.8-1.5-31.2c-0.1-2.2,0.7-3.6,2.3-4.9c35.8-29.2,71.5-58.4,107.2-87.7c36.6-30,73.2-60.2,109.8-90.3
		c1.2-1,2.4-1.9,3.6-2.8c0.1,0.1,0.2,0.2,0.3,0.4c-4.1,4.6-8.1,9.3-12.3,13.9c-23.6,26.1-47.3,52.2-70.9,78.3
		c-17.9,19.7-35.8,39.4-53.6,59.1c-14.7,16.3-29.4,32.6-44.1,48.8c-2.4,2.7-3.7,6.1-5.3,9.2c-10.2,19.6-20.4,39.3-30.6,58.9
		C170.6,339.4,170.1,340.3,169.3,341.6z M234.2,296.9c-16.7,14.8-33.5,29.4-51.1,43.4c2.9-5.9,5.8-11.8,8.8-17.6
		c6.3-12.3,12.6-24.5,19-36.8c1.8-3.5,1.8-3.5,5.2-1.7c6,3.1,12.1,6.1,17.8,9.8C235.2,294.9,235.6,295.6,234.2,296.9z M432.7,45.1
		c-5.3,24.4-10.7,48.8-16.1,73.1c-7.4,33.7-14.9,67.5-22.4,101.2c-4,18-8,36.1-12,54.1c-3.9,17.3-7.7,34.6-11.6,51.9
		c-1.6,7.1-3.2,14.3-4.8,21.4c-0.7,3.1-0.9,3.2-3.8,1.9c-13.9-6.2-27.1-13.6-40.6-20.7c-16-8.4-32-17-47.9-25.5
		c-17.3-9.2-34.5-18.4-51.8-27.6c-1.9-1-2.4-1.7-0.8-3.6c9.2-10.1,18.2-20.3,27.3-30.4c22.7-25.1,45.4-50.1,68.2-75.2
		c16.4-18,32.8-35.9,49.2-53.9c20.9-22.8,41.7-45.6,62.6-68.4c1.8-1.9,3.6-3.8,5.4-5.7c0.1,0.1,0.3,0.1,0.4,0.2
		C433.6,40.4,433.2,42.8,432.7,45.1z"/>
	<g>
		<linearGradient id="SVGID_1_" gradientUnits="userSpaceOnUse" x1="460.6342" y1="86.8749" x2="255.5617" y2="360.0633">
			<stop  offset="0" style="stop-color:#FFF45F"/>
			<stop  offset="1" style="stop-color:#F49AC1"/>
		</linearGradient>
		<path class="st1" d="M428.2,43.5c-20.9,22.8-41.7,45.6-62.6,68.4c-16.4,18-32.8,35.9-49.2,53.9c-22.8,25-45.5,50.1-68.2,75.2
			c-9.1,10.1-18.2,20.3-27.3,30.4c-1.6,1.8-1.1,2.6,0.8,3.6c17.3,9.2,34.6,18.4,51.8,27.6c16,8.5,31.9,17.1,47.9,25.5
			c13.4,7.1,26.7,14.5,40.6,20.7c2.9,1.3,3.1,1.2,3.8-1.9c1.7-7.1,3.2-14.3,4.8-21.4c3.9-17.3,7.8-34.6,11.6-51.9c4-18,8-36,12-54.1
			c7.5-33.7,14.9-67.5,22.4-101.2c5.4-24.4,10.7-48.7,16.1-73.1c0.5-2.4,0.9-4.8,1.3-7.2c-0.1-0.1-0.3-0.1-0.4-0.2
			C431.8,39.7,429.9,41.5,428.2,43.5z"/>
		
			<linearGradient id="SVGID_00000157290301950710961320000016669620623073527939_" gradientUnits="userSpaceOnUse" x1="320.861" y1="-18.0477" x2="115.7885" y2="255.1407">
			<stop  offset="0" style="stop-color:#FFF45F"/>
			<stop  offset="1" style="stop-color:#F49AC1"/>
		</linearGradient>
		<path style="fill:url(#SVGID_00000157290301950710961320000016669620623073527939_);" d="M314,116.3
			c24.3-19.9,48.5-39.8,72.7-59.7c8.3-6.8,16.5-13.6,24.8-20.4c-0.1-0.2-0.2-0.4-0.3-0.6C284.8,87.8,158.3,139.9,31.8,192
			c0.8,1.2,1.7,1.4,2.5,1.7c12.6,5.8,25.5,10.7,38.2,15.9c27.7,11.3,55.5,22.3,83.2,33.5c1.8,0.7,3.1,0.5,4.7-0.7
			c20.9-17.3,41.9-34.5,62.9-51.7C253.6,165.8,283.8,141.1,314,116.3z"/>
		
			<linearGradient id="SVGID_00000145761206305832935290000003688445735613740210_" gradientUnits="userSpaceOnUse" x1="378.8014" y1="25.446" x2="173.7289" y2="298.6344">
			<stop  offset="0" style="stop-color:#FFF45F"/>
			<stop  offset="1" style="stop-color:#F49AC1"/>
		</linearGradient>
		<path style="fill:url(#SVGID_00000145761206305832935290000003688445735613740210_);" d="M207,270.3
			c14.7-16.3,29.4-32.6,44.1-48.8c17.9-19.7,35.8-39.4,53.6-59.1c23.6-26.1,47.3-52.2,70.9-78.3c4.1-4.6,8.2-9.2,12.3-13.9
			c-0.1-0.1-0.2-0.2-0.3-0.4c-1.2,0.9-2.4,1.9-3.6,2.8c-36.6,30.1-73.1,60.2-109.8,90.3c-35.7,29.3-71.5,58.5-107.2,87.7
			c-1.6,1.3-2.5,2.7-2.3,4.9c0.6,10.4,1,20.8,1.5,31.2c0.6,13.5,1.1,27,1.9,40.5c0.3,4.6,0.1,9.3,1.1,14.2c0.7-1.2,1.3-2.1,1.8-3.1
			c10.2-19.6,20.4-39.3,30.6-58.9C203.4,276.4,204.6,273,207,270.3z"/>
		
			<linearGradient id="SVGID_00000096058765401730543630000014387758480822600890_" gradientUnits="userSpaceOnUse" x1="406.42" y1="46.1782" x2="201.3475" y2="319.3666">
			<stop  offset="0" style="stop-color:#FFF45F"/>
			<stop  offset="1" style="stop-color:#F49AC1"/>
		</linearGradient>
		<path style="fill:url(#SVGID_00000096058765401730543630000014387758480822600890_);" d="M233.8,294c-5.7-3.7-11.8-6.6-17.8-9.8
			c-3.4-1.8-3.4-1.8-5.2,1.7c-6.3,12.3-12.7,24.5-19,36.8c-3,5.8-5.9,11.7-8.8,17.6c17.7-14,34.5-28.6,51.1-43.4
			C235.6,295.6,235.2,294.9,233.8,294z"/>
	</g>
</g>
</svg>
