<?xml version="1.0" encoding="utf-8"?>
<!-- Generator: Adobe Illustrator 26.4.1, SVG Export Plug-In . SVG Version: 6.00 Build 0)  -->
<svg version="1.1" id="Logo" xmlns="http://www.w3.org/2000/svg" xmlns:xlink="http://www.w3.org/1999/xlink" x="0px" y="0px"
	 viewBox="0 0 512 512" style="enable-background:new 0 0 512 512;" xml:space="preserve">
<style type="text/css">
	.st0{fill-rule:evenodd;clip-rule:evenodd;fill:url(#SVGID_1_);}
	.st1{fill-rule:evenodd;clip-rule:evenodd;fill:#A969AA;}
</style>
<g>
	<linearGradient id="SVGID_1_" gradientUnits="userSpaceOnUse" x1="406.4392" y1="80.9435" x2="105.1353" y2="431.5516">
		<stop  offset="0" style="stop-color:#FFF35F"/>
		<stop  offset="1" style="stop-color:#F399C0"/>
	</linearGradient>
	<circle class="st0" cx="256" cy="256" r="244.4"/>
	<path class="st1" d="M256,11.6c-135.1,0-244.7,109.5-244.7,244.7c0,108.1,70.1,199.8,167.3,232.2c12.2,2.2,16.7-5.3,16.7-11.8
		c0-5.8-0.2-21.2-0.3-41.6c-68.1,14.8-82.4-32.8-82.4-32.8c-11.1-28.3-27.2-35.8-27.2-35.8c-22.2-15.2,1.7-14.9,1.7-14.9
		c24.6,1.7,37.5,25.2,37.5,25.2c21.8,37.4,57.3,26.6,71.2,20.3c2.2-15.8,8.5-26.6,15.5-32.7C157,358.2,99.9,337.3,99.9,243.5
		c0-26.7,9.5-48.6,25.2-65.7c-2.5-6.2-10.9-31.1,2.4-64.8c0,0,20.5-6.6,67.3,25.1c19.5-5.4,40.4-8.1,61.3-8.2
		c20.8,0.1,41.7,2.8,61.3,8.2c46.7-31.7,67.2-25.1,67.2-25.1c13.3,33.7,5,58.6,2.4,64.8c15.7,17.1,25.1,38.9,25.1,65.7
		c0,94-57.2,114.7-111.7,120.7c8.8,7.6,16.6,22.5,16.6,45.3c0,32.7-0.3,59.1-0.3,67.1c0,6.5,4.4,14.2,16.8,11.8
		c97.1-32.4,167.2-124.1,167.2-232.1C500.7,121.2,391.1,11.6,256,11.6z"/>
</g>
</svg>
