<?xml version="1.0" encoding="utf-8"?>
<!-- Generator: Adobe Illustrator 26.4.1, SVG Export Plug-In . SVG Version: 6.00 Build 0)  -->
<svg version="1.1" id="Logo" xmlns="http://www.w3.org/2000/svg" xmlns:xlink="http://www.w3.org/1999/xlink" x="0px" y="0px"
	 viewBox="0 0 512 512" style="enable-background:new 0 0 512 512;" xml:space="preserve">
<style type="text/css">
	.st0{fill:url(#SVGID_1_);}
	.st1{fill:url(#SVGID_00000068656284372460259120000016259065079457847229_);}
	.st2{fill:#A969AA;}
</style>
<g>
	<g>
		<linearGradient id="SVGID_1_" gradientUnits="userSpaceOnUse" x1="378.9109" y1="56.2821" x2="122.01" y2="473.4972">
			<stop  offset="0" style="stop-color:#FFF35F"/>
			<stop  offset="1" style="stop-color:#F399C0"/>
		</linearGradient>
		<path class="st0" d="M86.4,476.7c113.3,0,226.2,0,339.1,0c0-108.2,0-216,0-324.2c-2,0-3.7,0-5.4,0c-33.1,0-66.2,0-99.3,0
			c-9.5,0-12.5-3-12.5-12.5c0-33.1,0-66.2,0-99.3c0-1.8,0.6-3.7-0.5-5.3c-73.8,0-147.5,0-221.4,0C86.4,182.6,86.4,329.5,86.4,476.7z
			"/>
		
			<linearGradient id="SVGID_00000076574731669560634740000015687037556881718414_" gradientUnits="userSpaceOnUse" x1="387.7088" y1="61.6995" x2="130.8079" y2="478.9145">
			<stop  offset="0" style="stop-color:#FFF35F"/>
			<stop  offset="1" style="stop-color:#F399C0"/>
		</linearGradient>
		<path style="fill:url(#SVGID_00000076574731669560634740000015687037556881718414_);" d="M326.5,49.3c0,28.3,0,56.8,0,85.3
			c28.8,0,57.2,0,85.3,0C383.3,106.1,354.9,77.7,326.5,49.3z"/>
	</g>
	<g>
		<path class="st2" d="M320.3,17.4c2.2,1.9,4.5,3.8,6.5,5.8c37.3,37.2,74.5,74.5,111.8,111.6c3.4,3.4,5,7,5,11.9
			c-0.1,111.8-0.1,223.7-0.1,335.5c0,9.8-2.6,12.4-12.5,12.4c-116.8,0-233.6,0-350.4,0c-9.5,0-12.2-2.7-12.2-12.1
			c0-151,0-302-0.1-453c0-5.3,1.4-9.3,5.9-12.2C156.3,17.4,238.3,17.4,320.3,17.4z M86.4,476.7c113.3,0,226.2,0,339.1,0
			c0-108.2,0-216,0-324.2c-2,0-3.7,0-5.4,0c-33.1,0-66.2,0-99.3,0c-9.5,0-12.5-3-12.5-12.5c0-33.1,0-66.2,0-99.3
			c0-1.8,0.6-3.7-0.5-5.3c-73.8,0-147.5,0-221.4,0C86.4,182.6,86.4,329.5,86.4,476.7z M326.5,49.3c0,28.3,0,56.8,0,85.3
			c28.8,0,57.2,0,85.3,0C383.3,106.1,354.9,77.7,326.5,49.3z"/>
		<path class="st2" d="M255.8,278.4c-32.4,0-64.9,0-97.3,0c-6.5,0-9.9-2.4-10.7-7.2c-0.8-4.6,1.5-8.3,5.8-9.8
			c2.1-0.8,4.3-0.6,6.4-0.6c64,0,127.9,0,191.9,0c2.3,0,4.7-0.2,6.9,0.8c4.1,1.7,6.1,4.8,5.6,9.1c-0.5,4.4-3.1,7-7.5,7.7
			c-1.7,0.3-3.4,0.2-5.1,0.2C319.8,278.4,287.8,278.4,255.8,278.4z"/>
		<path class="st2" d="M256,343.6c-32.6,0-65.2,0-97.8,0c-6.7,0-10.8-3.4-10.7-8.9c0.1-4.3,3.2-7.9,7.7-8.6c1.5-0.2,3.1-0.2,4.6-0.2
			c64.1,0,128.2,0,192.3,0c0.9,0,1.9,0,2.8,0c5.6,0.2,9.5,3.8,9.6,8.7c0.1,5.1-3.9,8.9-9.8,8.9C321.8,343.6,288.9,343.6,256,343.6z"
			/>
		<path class="st2" d="M256,408.8c-32,0-64,0-95.9,0c-1.7,0-3.4,0.1-5.1-0.2c-4.6-0.8-7.7-4.7-7.4-9.2c0.3-4.4,3.5-7.7,8-8.2
			c0.9-0.1,1.9-0.1,2.8-0.1c65,0,130.1,0,195.1,0c1.1,0,2.2,0,3.3,0.1c4.3,0.6,7.4,3.9,7.7,8.1c0.3,4.1-2.3,8-6.5,9
			c-1.8,0.4-3.7,0.4-5.5,0.4C320.3,408.9,288.2,408.8,256,408.8z"/>
		<path class="st2" d="M197.8,67.5c20.8,0.7,36.5,17.2,35.8,37.8c-0.6,20.1-17.4,35.9-37.4,35.3c-20.2-0.6-36.4-17.5-35.7-37.1
			C161.3,82.9,177.9,66.8,197.8,67.5z M178.4,104c0,10.6,8.2,18.8,18.9,18.8c10.3,0,18.6-8.3,18.7-18.6c0.1-10.6-8.1-19-18.7-19
			C186.6,85.2,178.4,93.4,178.4,104z"/>
		<path class="st2" d="M247.3,190.4c-0.2,3.2,0.3,6.5-0.4,9.7c-1.1,4.5-4.5,7.5-8.8,7.3c-4.2-0.1-7.4-3-8.2-7.4
			c-0.9-4.8-0.3-9.6-0.4-14.4c-0.2-13.5-6.9-20.2-20.4-20.3c-8.4,0-16.8-0.1-25.1,0c-11.2,0.2-18.2,7.1-18.6,18.3
			c-0.2,5,0.2,10-0.2,14.9c-0.4,5.5-4.1,8.9-8.9,8.9c-4.6-0.1-8.4-3.3-8.7-8.6c-0.5-10.5-1.4-21.2,3.5-31
			c6.9-13.6,18.4-20.2,33.4-20.4c10.4-0.1,20.8-0.4,31.2,0.4c15.5,1.2,29.7,15.3,31.1,30.9C247.1,182.7,247.5,186.5,247.3,190.4z"/>
	</g>
</g>
</svg>
